<svg width="54" height="54" viewBox="0 0 54 54" fill="none" xmlns="http://www.w3.org/2000/svg">
<path d="M48 0H6C2.7 0 0 2.7 0 6V48C0 51.3 2.7 54 6 54H48C51.3 54 54 51.3 54 48V6C54 2.7 51.3 0 48 0ZM24 15H18V21C18 24.3 15.3 27 12 27C15.3 27 18 29.7 18 33V39H24V45H18C14.7 45 12 42.3 12 39V36C12 32.7 9.3 30 6 30V24C9.3 24 12 21.3 12 18V15C12 11.7 14.7 9 18 9H24V15ZM48 30C44.7 30 42 32.7 42 36V39C42 42.3 39.3 45 36 45H30V39H36V33C36 29.7 38.7 27 42 27C38.7 27 36 24.3 36 21V15H30V9H36C39.3 9 42 11.7 42 15V18C42 21.3 44.7 24 48 24V30Z" fill="#00419C"/>
</svg>
