<svg width="104" height="104" viewBox="0 0 104 104" fill="none" xmlns="http://www.w3.org/2000/svg">
<g filter="url(#filter0_d_199_24)">
<rect x="8" y="8" width="88" height="88" rx="44" fill="url(#paint0_linear_199_24)" shape-rendering="crispEdges"/>
<path d="M53.6875 49.1875C52.5625 48.9062 51.4375 48.3437 50.5938 47.5C49.75 47.2187 49.4688 46.375 49.4688 45.8125C49.4688 45.25 49.75 44.4062 50.3125 44.125C51.1562 43.5625 52 43 52.8438 43.2812C54.5312 43.2812 55.9375 44.125 56.7812 45.25L59.3125 41.875C58.4688 41.0312 57.625 40.4687 56.7812 39.9062C55.9375 39.3437 54.8125 39.0625 53.6875 39.0625V35.125H50.3125V39.0625C48.9062 39.3438 47.5 40.1875 46.375 41.3125C45.25 42.7187 44.4062 44.4062 44.6875 46.0938C44.6875 47.7812 45.25 49.4688 46.375 50.5938C47.7812 52 49.75 52.8438 51.4375 53.6875C52.2812 53.9688 53.4062 54.5313 54.25 55.0938C54.8125 55.6563 55.0938 56.5 55.0938 57.3437C55.0938 58.1875 54.8125 59.0312 54.25 59.875C53.4062 60.7188 52.2812 61 51.4375 61C50.3125 61 48.9063 60.7188 48.0625 59.875C47.2188 59.3125 46.375 58.4688 45.8125 57.625L43 60.7188C43.8438 61.8438 44.6875 62.6875 45.8125 63.5312C47.2188 64.375 48.9062 65.2188 50.5938 65.2188V68.875H53.6875V64.6562C55.375 64.375 56.7813 63.5312 57.9063 62.4062C59.3125 61 60.1562 58.75 60.1562 56.7812C60.1562 55.0938 59.5938 53.125 58.1875 52C56.7812 50.5938 55.375 49.75 53.6875 49.1875ZM52 29.5C39.625 29.5 29.5 39.625 29.5 52C29.5 64.375 39.625 74.5 52 74.5C64.375 74.5 74.5 64.375 74.5 52C74.5 39.625 64.375 29.5 52 29.5ZM52 71.4062C41.3125 71.4062 32.5937 62.6875 32.5937 52C32.5937 41.3125 41.3125 32.5937 52 32.5937C62.6875 32.5937 71.4062 41.3125 71.4062 52C71.4062 62.6875 62.6875 71.4062 52 71.4062Z" fill="white"/>
</g>
<defs>
<filter id="filter0_d_199_24" x="0" y="0" width="104" height="104" filterUnits="userSpaceOnUse" color-interpolation-filters="sRGB">
<feFlood flood-opacity="0" result="BackgroundImageFix"/>
<feColorMatrix in="SourceAlpha" type="matrix" values="0 0 0 0 0 0 0 0 0 0 0 0 0 0 0 0 0 0 127 0" result="hardAlpha"/>
<feOffset/>
<feGaussianBlur stdDeviation="4"/>
<feComposite in2="hardAlpha" operator="out"/>
<feColorMatrix type="matrix" values="0 0 0 0 0 0 0 0 0 0 0 0 0 0 0 0 0 0 0.25 0"/>
<feBlend mode="normal" in2="BackgroundImageFix" result="effect1_dropShadow_199_24"/>
<feBlend mode="normal" in="SourceGraphic" in2="effect1_dropShadow_199_24" result="shape"/>
</filter>
<linearGradient id="paint0_linear_199_24" x1="8" y1="52" x2="96" y2="52" gradientUnits="userSpaceOnUse">
<stop stop-color="#006AFF"/>
<stop offset="1" stop-color="#004099"/>
</linearGradient>
</defs>
</svg>
