<svg width="104" height="104" viewBox="0 0 104 104" fill="none" xmlns="http://www.w3.org/2000/svg">
<g filter="url(#filter0_d_199_27)">
<rect x="8" y="8" width="88" height="88" rx="44" fill="url(#paint0_linear_199_27)" shape-rendering="crispEdges"/>
<path d="M57.3245 35.0007C56.4325 35.0072 55.547 35.0508 54.6116 35.3025C53.5924 35.5795 52.6254 36.0227 51.7493 36.6144C50.5182 35.8882 49.3257 35.2912 48.183 35.1508C46.7639 34.9749 45.4461 35.0701 43.9145 35.1024C42.0984 35.1395 40.9139 36.0706 38.9918 36.8161C37.0712 37.5584 34.5979 38.278 31.1071 38.278H29.5V53.8093L30.4048 54.2628L33.3668 55.7263L43.9145 67.5252L43.9643 67.5753C45.1696 68.7726 46.7961 69.0695 48.2329 68.9872C49.6712 68.9065 51.0212 68.4837 52.0996 67.8286C54.4734 66.3909 60.9389 61.8775 60.9389 61.8775L61.09 61.7759L61.1912 61.6758C61.9562 60.9126 62.3404 59.9815 62.5975 59.0036L68.7738 55.8764L73.3943 54.3144L74.5 53.9594V38.278H72.8929C70.1911 38.2983 67.5119 37.784 65.0082 36.7645C63.0861 36.0109 61.9193 35.0895 60.0839 35.0508C59.1036 35.0314 58.2148 34.9943 57.3245 35.0007ZM57.3727 38.228C58.0959 38.2216 58.9316 38.2603 59.9859 38.278C60.1546 38.2845 61.6991 38.9461 63.8527 39.7916C65.6736 40.5097 68.2032 41.1471 71.2857 41.3536V51.6406L67.5684 52.9025H67.4688L67.3675 52.9509L62.4979 55.423C62.2394 54.6741 61.8289 53.9873 61.2925 53.4059L61.1912 53.2542L54.3609 44.8343L53.3564 43.5724L52.0996 44.5809L47.7812 48.1116C46.3316 49.1201 45.1568 48.8296 43.9643 48.2632C43.6187 48.0986 43.638 48.0486 43.3616 47.8598L50.695 41.7571L50.7946 41.657C52.9723 39.4883 54.3111 38.7379 55.465 38.4297C56.0436 38.2716 56.6511 38.2345 57.3727 38.228ZM46.1757 38.278C46.7119 38.2562 47.249 38.2729 47.7829 38.3281C48.2039 38.3781 48.6812 38.7379 49.0895 38.8832C48.9255 39.0348 48.8066 39.122 48.6362 39.2866L48.5366 39.3882L39.7471 46.698L38.3907 47.8082L39.5961 49.0684C39.5961 49.0684 40.758 50.3303 42.5596 51.1872C44.3612 52.044 47.1432 52.5297 49.6407 50.7837L49.742 50.6821L52.855 48.1116L58.7821 55.423L58.832 55.5246L58.8818 55.573C59.9425 56.6267 59.9184 58.2839 58.8818 59.357C58.8689 59.3683 58.8946 59.3941 58.8818 59.4054C58.8689 59.4135 58.6568 59.5393 58.6311 59.5587L56.5209 56.6832L53.9093 58.6002L55.9696 61.3724C55.1339 61.9404 54.7579 62.2374 53.8595 62.836L51.7011 59.9105L49.0879 61.8275L51.1482 64.5997C50.965 64.7127 50.5889 64.966 50.4443 65.0548C49.9364 65.363 48.9561 65.7099 48.0834 65.7599C47.2621 65.8051 46.6337 65.6147 46.3268 65.3565L46.277 65.3065L35.5284 53.3559L35.3275 53.1025L32.7143 51.7923V41.3536C35.7839 41.1519 38.3329 40.5404 40.1473 39.8417C42.2945 39.0155 43.8277 38.3345 44.0141 38.3281L46.1757 38.278Z" fill="white"/>
</g>
<defs>
<filter id="filter0_d_199_27" x="0" y="0" width="104" height="104" filterUnits="userSpaceOnUse" color-interpolation-filters="sRGB">
<feFlood flood-opacity="0" result="BackgroundImageFix"/>
<feColorMatrix in="SourceAlpha" type="matrix" values="0 0 0 0 0 0 0 0 0 0 0 0 0 0 0 0 0 0 127 0" result="hardAlpha"/>
<feOffset/>
<feGaussianBlur stdDeviation="4"/>
<feComposite in2="hardAlpha" operator="out"/>
<feColorMatrix type="matrix" values="0 0 0 0 0 0 0 0 0 0 0 0 0 0 0 0 0 0 0.25 0"/>
<feBlend mode="normal" in2="BackgroundImageFix" result="effect1_dropShadow_199_27"/>
<feBlend mode="normal" in="SourceGraphic" in2="effect1_dropShadow_199_27" result="shape"/>
</filter>
<linearGradient id="paint0_linear_199_27" x1="8" y1="52" x2="96" y2="52" gradientUnits="userSpaceOnUse">
<stop stop-color="#006AFF"/>
<stop offset="1" stop-color="#004099"/>
</linearGradient>
</defs>
</svg>
