<svg preserveAspectRatio="none" width="100%" height="100%" overflow="visible" style="display: block;" viewBox="0 0 15 15" fill="none" xmlns="http://www.w3.org/2000/svg">
<g id="vaadin:globe" clip-path="url(#clip0_165_402)">
<path id="Vector" d="M7.5 0C3.375 0 0 3.375 0 7.5C0 11.625 3.375 15 7.5 15C11.625 15 15 11.625 15 7.5C15 3.375 11.625 0 7.5 0ZM12.375 4.96875C12.75 4.96875 13.0313 5.25 13.4063 5.25C13.125 5.625 11.9063 5.625 11.5313 5.15625C11.8125 5.0625 12 4.96875 12.375 4.96875ZM0.9375 7.5C0.9375 7.125 0.9375 6.75 1.03125 6.28125C1.125 6.28125 1.21875 6.375 1.3125 6.375C1.3125 6.375 1.40625 6.46875 1.40625 6.5625C1.40625 6.84375 1.6875 7.03125 1.875 7.03125C2.625 7.125 2.90625 7.78125 3.5625 7.96875C3.75 8.0625 3.65625 8.25 3.5625 8.4375C3 9.1875 3.46875 9.75 3.9375 10.2187C4.40625 10.5937 4.40625 10.9688 4.5 11.5313C4.5 12.1875 4.59375 12.9375 4.875 13.5938C2.53125 12.4687 0.9375 10.2188 0.9375 7.5ZM7.5 14.0625C6.84375 14.0625 6.09375 13.9687 5.53125 13.7812C5.4375 13.5937 5.4375 13.4063 5.53125 13.2188C5.90625 12.4688 6.28125 11.8125 6.75 11.1562C6.9375 10.9687 7.125 10.7812 7.125 10.5C7.125 10.3125 7.21875 10.0313 7.3125 9.84375C7.59375 9.375 7.5 9.09375 7.125 9C6.375 8.8125 6 8.15625 5.4375 7.875C4.875 7.59375 4.3125 7.40625 3.84375 7.6875C3.65625 7.78125 3.375 7.875 3.375 7.59375C3.375 7.21875 2.90625 6.9375 3 6.5625C2.90625 6.5625 2.8125 6.5625 2.71875 6.65625C2.625 6.75 2.53125 6.84375 2.34375 6.75C2.15625 6.5625 2.25 6.375 2.25 6.1875C2.34375 6 2.4375 5.90625 2.625 5.8125C3 5.71875 3.375 5.71875 3.5625 6.1875C3.84375 5.34375 4.40625 4.875 4.96875 4.5C4.96875 4.5 5.71875 3.84375 5.8125 3.84375C5.90625 3.84375 6 4.03125 6.1875 4.125C6.375 4.125 6.46875 4.125 6.46875 3.9375C6.5625 3.46875 6.28125 2.90625 5.90625 2.8125C5.90625 2.71875 6 2.71875 6 2.71875C6.28125 2.625 6.65625 2.4375 6.5625 2.15625C6.5625 1.78125 6.1875 1.59375 5.8125 1.59375C5.625 1.59375 5.4375 1.59375 5.25 1.6875C4.875 1.875 4.40625 2.0625 3.84375 2.0625C4.875 1.3125 6.1875 0.9375 7.5 0.9375H8.25C7.6875 1.03125 7.125 1.21875 6.75 1.40625C7.3125 1.5 7.40625 1.78125 7.21875 2.25C7.125 2.4375 7.21875 2.625 7.40625 2.71875C7.59375 2.8125 7.78125 2.8125 7.875 2.625C8.0625 2.34375 8.4375 2.25 8.71875 2.15625C9.09375 2.0625 9.375 1.875 9.65625 1.5C9.65625 1.40625 9.75 1.40625 9.84375 1.3125C10.4063 1.5 10.9688 1.875 11.5313 2.25C11.4375 2.25 11.4375 2.34375 11.3438 2.34375C11.1563 2.53125 10.875 2.625 11.1562 3C11.25 3.1875 11.1563 3.28125 11.0625 3.375C10.875 3.46875 10.7812 3.375 10.6875 3.28125C10.5937 3.1875 10.5938 3 10.3125 3C10.2187 3.1875 9.9375 3.28125 9.9375 3.5625C10.4063 3.5625 10.3125 3.9375 10.4063 4.21875C9.84375 4.3125 9.65625 4.59375 9.9375 5.0625C10.0313 5.25 9.84375 5.34375 9.75 5.4375C9.375 6 9 6.375 9 7.03125C9 7.6875 9.46875 8.34375 10.2187 8.25C11.0625 8.15625 11.0625 8.15625 11.3438 8.90625C11.3438 9 11.4375 9.09375 11.4375 9.1875C11.5312 9.375 11.625 9.5625 11.5313 9.75C11.25 10.5 11.625 11.0625 11.9062 11.625C12 11.8125 12.0937 11.9063 12.1875 12C10.9688 13.3125 9.375 14.0625 7.5 14.0625Z" fill="var(--fill-0, black)" fill-opacity="0.5"/>
</g>
<defs>
<clipPath id="clip0_165_402">
<rect width="15" height="15" fill="white"/>
</clipPath>
</defs>
</svg>
