<svg preserveAspectRatio="none" width="100%" height="100%" overflow="visible" style="display: block;" viewBox="0 0 104 104" fill="none" xmlns="http://www.w3.org/2000/svg">
<g id="container-icon-demo" filter="url(#filter0_d_201_742)">
<rect x="8" y="8" width="88" height="88" rx="44" fill="url(#paint0_linear_201_742)" shape-rendering="crispEdges"/>
<path id="icon-code-line" d="M57.2068 33.5778C57.7413 33.7272 58.1943 34.0812 58.4661 34.5621C58.7379 35.0431 58.8062 35.6115 58.6561 36.1425L49.3778 68.9813C49.3035 69.2444 49.1778 69.4903 49.0078 69.7051C48.8379 69.9199 48.627 70.0993 48.3872 70.2332C48.1474 70.367 47.8834 70.4527 47.6102 70.4852C47.3371 70.5177 47.0602 70.4965 46.7953 70.4228C46.5305 70.349 46.2828 70.2242 46.0665 70.0554C45.8503 69.8866 45.6696 69.6771 45.5348 69.439C45.4 69.2008 45.3138 68.9387 45.281 68.6674C45.2483 68.3962 45.2696 68.1212 45.3439 67.8581L54.6222 35.0193C54.6964 34.756 54.8222 34.5098 54.9923 34.2948C55.1624 34.0799 55.3735 33.9003 55.6136 33.7664C55.8536 33.6325 56.1179 33.547 56.3913 33.5146C56.6646 33.4823 56.9417 33.5037 57.2068 33.5778ZM41.9614 41.7044C42.354 42.0944 42.5746 42.6234 42.5746 43.1749C42.5746 43.7265 42.354 44.2554 41.9614 44.6455L34.5576 52.0003L41.9614 59.3531C42.156 59.5462 42.3104 59.7755 42.4158 60.0278C42.5211 60.2802 42.5754 60.5507 42.5755 60.8239C42.5756 61.0971 42.5215 61.3677 42.4163 61.6201C42.3111 61.8726 42.1569 62.102 41.9625 62.2952C41.768 62.4885 41.5371 62.6418 41.283 62.7464C41.0289 62.8511 40.7565 62.905 40.4814 62.9051C40.2063 62.9052 39.9339 62.8514 39.6797 62.747C39.4255 62.6425 39.1945 62.4894 38.9999 62.2962L30.1132 53.4709C29.7206 53.0808 29.5 52.5518 29.5 52.0003C29.5 51.4488 29.7206 50.9198 30.1132 50.5298L38.9999 41.7044C39.3926 41.3144 39.9253 41.0954 40.4806 41.0954C41.036 41.0954 41.5686 41.3144 41.9614 41.7044ZM62.0386 44.6455C61.8386 44.4536 61.679 44.2241 61.5692 43.9703C61.4595 43.7165 61.4017 43.4436 61.3993 43.1674C61.3969 42.8912 61.4498 42.6174 61.5552 42.3617C61.6605 42.1061 61.816 41.8739 62.0126 41.6786C62.2093 41.4833 62.4431 41.3288 62.7005 41.2243C62.9579 41.1197 63.2337 41.067 63.5118 41.0694C63.7899 41.0718 64.0647 41.1292 64.3203 41.2382C64.5758 41.3472 64.8069 41.5057 65.0001 41.7044L73.8868 50.5298C74.2794 50.9198 74.5 51.4488 74.5 52.0003C74.5 52.5518 74.2794 53.0808 73.8868 53.4709L65.0001 62.2962C64.6071 62.6863 64.0742 62.9053 63.5186 62.9051C62.963 62.9049 62.4303 62.6855 62.0375 62.2952C61.6448 61.9049 61.4243 61.3757 61.4245 60.8239C61.4247 60.2722 61.6456 59.7431 62.0386 59.3531L69.4424 52.0003L62.0386 44.6455Z" fill="var(--fill-0, white)"/>
</g>
<defs>
<filter id="filter0_d_201_742" x="0" y="0" width="104" height="104" filterUnits="userSpaceOnUse" color-interpolation-filters="sRGB">
<feFlood flood-opacity="0" result="BackgroundImageFix"/>
<feColorMatrix in="SourceAlpha" type="matrix" values="0 0 0 0 0 0 0 0 0 0 0 0 0 0 0 0 0 0 127 0" result="hardAlpha"/>
<feOffset/>
<feGaussianBlur stdDeviation="4"/>
<feComposite in2="hardAlpha" operator="out"/>
<feColorMatrix type="matrix" values="0 0 0 0 0 0 0 0 0 0 0 0 0 0 0 0 0 0 0.25 0"/>
<feBlend mode="normal" in2="BackgroundImageFix" result="effect1_dropShadow_201_742"/>
<feBlend mode="normal" in="SourceGraphic" in2="effect1_dropShadow_201_742" result="shape"/>
</filter>
<linearGradient id="paint0_linear_201_742" x1="8" y1="52" x2="96" y2="52" gradientUnits="userSpaceOnUse">
<stop stop-color="#006AFF"/>
<stop offset="1" stop-color="#004099"/>
</linearGradient>
</defs>
</svg>
