<svg width="45" height="34" viewBox="0 0 45 34" fill="none" xmlns="http://www.w3.org/2000/svg">
<path d="M27.8245 0.000744272C26.9325 0.00719883 26.047 0.0507675 25.1116 0.302495C24.0924 0.579497 23.1254 1.02269 22.2493 1.61438C21.0182 0.888246 19.8257 0.291199 18.683 0.150813C17.2639 -0.0250741 15.9461 0.0701311 14.4145 0.102404C12.5984 0.139518 11.4139 1.07059 9.49179 1.81609C7.57125 2.55836 5.09786 3.27804 1.60714 3.27804H0V18.8093L0.904821 19.2628L3.86679 20.7263L14.4145 32.5252L14.4643 32.5753C15.6696 33.7726 17.2961 34.0695 18.7329 33.9872C20.1712 33.9065 21.5212 33.4837 22.5996 32.8286C24.9734 31.3909 31.4389 26.8775 31.4389 26.8775L31.59 26.7759L31.6912 26.6758C32.4562 25.9126 32.8404 24.9815 33.0975 24.0036L39.2738 20.8764L43.8943 19.3144L45 18.9594V3.27804H43.3929C40.6911 3.29827 38.0119 2.78395 35.5082 1.76445C33.5861 1.01088 32.4193 0.0894946 30.5839 0.0507673C29.6036 0.0314036 28.7148 -0.00571028 27.8245 0.000744272ZM27.8727 3.22802C28.5959 3.22157 29.4316 3.26029 30.4859 3.27804C30.6546 3.2845 32.1991 3.94609 34.3527 4.79164C36.1736 5.50971 38.7032 6.14709 41.7857 6.35364V16.6406L38.0684 17.9025H37.9688L37.8675 17.9509L32.9979 20.423C32.7394 19.6741 32.3289 18.9873 31.7925 18.4059L31.6912 18.2542L24.8609 9.83426L23.8564 8.57239L22.5996 9.58092L18.2812 13.1116C16.8316 14.1201 15.6568 13.8296 14.4643 13.2632C14.1187 13.0986 14.138 13.0486 13.8616 12.8598L21.195 6.75705L21.2946 6.657C23.4723 4.48827 24.8111 3.73793 25.965 3.42973C26.5436 3.27159 27.1511 3.23448 27.8727 3.22802ZM16.6757 3.27804C17.2119 3.25621 17.749 3.27293 18.2829 3.32807C18.7039 3.37809 19.1812 3.73793 19.5895 3.88316C19.4255 4.03484 19.3066 4.12198 19.1362 4.28657L19.0366 4.38823L10.2471 11.698L8.89071 12.8082L10.0961 14.0684C10.0961 14.0684 11.258 15.3303 13.0596 16.1872C14.8612 17.044 17.6432 17.5297 20.1407 15.7837L20.242 15.6821L23.355 13.1116L29.2821 20.423L29.332 20.5246L29.3818 20.573C30.4425 21.6267 30.4184 23.2839 29.3818 24.357C29.3689 24.3683 29.3946 24.3941 29.3818 24.4054C29.3689 24.4135 29.1568 24.5393 29.1311 24.5587L27.0209 21.6832L24.4093 23.6002L26.4696 26.3724C25.6339 26.9404 25.2579 27.2374 24.3595 27.836L22.2011 24.9105L19.5879 26.8275L21.6482 29.5997C21.465 29.7127 21.0889 29.966 20.9443 30.0548C20.4364 30.363 19.4561 30.7099 18.5834 30.7599C17.7621 30.8051 17.1337 30.6147 16.8268 30.3565L16.777 30.3065L6.02839 18.3559L5.8275 18.1025L3.21429 16.7923V6.35364C6.28393 6.15194 8.83286 5.54037 10.6473 4.84166C12.7945 4.01548 14.3277 3.33452 14.5141 3.32807L16.6757 3.27804Z" fill="white"/>
</svg>
