<svg preserveAspectRatio="none" width="100%" height="100%" overflow="visible" style="display: block;" viewBox="0 0 16.67 16.67" fill="none" xmlns="http://www.w3.org/2000/svg">
<path id="icons:cross-circle" d="M8.335 0C10.5456 0 12.6656 0.878149 14.2287 2.44126C15.7919 4.00438 16.67 6.12442 16.67 8.335C16.67 10.5456 15.7919 12.6656 14.2287 14.2287C12.6656 15.7919 10.5456 16.67 8.335 16.67C6.12442 16.67 4.00438 15.7919 2.44126 14.2287C0.878149 12.6656 0 10.5456 0 8.335C0 6.12442 0.878149 4.00438 2.44126 2.44126C4.00438 0.878149 6.12442 0 8.335 0ZM8.335 1.19557C7.37985 1.16721 6.42873 1.33084 5.53798 1.67677C4.64722 2.02271 3.83496 2.54391 3.14932 3.20949C2.46368 3.87508 1.9186 4.67151 1.54637 5.5516C1.17415 6.43169 0.98236 7.37754 0.98236 8.33311C0.98236 9.28868 1.17415 10.2345 1.54637 11.1146C1.9186 11.9947 2.46368 12.7911 3.14932 13.4567C3.83496 14.1223 4.64722 14.6435 5.53798 14.9895C6.42873 15.3354 7.37985 15.499 8.335 15.4707C10.1999 15.4274 11.9738 14.6562 13.2774 13.3218C14.5809 11.9875 15.3106 10.196 15.3103 8.33062C15.3099 6.46523 14.5796 4.67402 13.2756 3.34014C11.9716 2.00625 10.1974 1.23561 8.33248 1.19305M10.4052 5.37125C10.4633 5.31115 10.5327 5.26321 10.6095 5.23023C10.6862 5.19726 10.7688 5.1799 10.8524 5.17917C10.9359 5.17844 11.0188 5.19437 11.0961 5.226C11.1734 5.25764 11.2437 5.30437 11.3028 5.36345C11.3619 5.42253 11.4086 5.49279 11.4402 5.57012C11.4719 5.64745 11.4878 5.73031 11.4871 5.81386C11.4863 5.89741 11.469 5.97998 11.436 6.05675C11.403 6.13352 11.3551 6.20296 11.295 6.261L9.22475 8.335L11.2975 10.4077L11.378 10.5059C11.4582 10.6269 11.4941 10.7719 11.4796 10.9164C11.4651 11.0608 11.4011 11.1958 11.2985 11.2985C11.1958 11.4011 11.0608 11.4651 10.9164 11.4796C10.7719 11.4941 10.6269 11.4582 10.5059 11.378L10.4077 11.2975L8.335 9.22475L6.26352 11.2975C6.14484 11.4121 5.98589 11.4755 5.82091 11.4741C5.65592 11.4727 5.4981 11.4065 5.38143 11.2898C5.26476 11.1732 5.19859 11.0153 5.19715 10.8504C5.19572 10.6854 5.25914 10.5264 5.37377 10.4077L7.44525 8.335L5.37377 6.26352L5.29196 6.1641C5.2112 6.043 5.17492 5.89764 5.1893 5.75279C5.20368 5.60794 5.26784 5.47255 5.37084 5.3697C5.47384 5.26684 5.60932 5.20288 5.75419 5.1887C5.89907 5.17453 6.04437 5.21102 6.16536 5.29196L6.26352 5.37377L8.335 7.44525L10.4052 5.37125Z" fill="var(--fill-0, #E22935)"/>
</svg>
