<svg width="45" height="37" viewBox="0 0 45 37" fill="none" xmlns="http://www.w3.org/2000/svg">
<path d="M27.7068 0.0778462C28.2413 0.22717 28.6943 0.58122 28.9661 1.06215C29.2379 1.54308 29.3062 2.11151 29.1561 2.64247L19.8778 35.4813C19.8035 35.7444 19.6778 35.9903 19.5078 36.2051C19.3379 36.4199 19.127 36.5993 18.8872 36.7332C18.6474 36.8671 18.3834 36.9527 18.1102 36.9852C17.8371 37.0177 17.5602 36.9965 17.2953 36.9228C17.0305 36.849 16.7828 36.7242 16.5665 36.5554C16.3503 36.3866 16.1696 36.1771 16.0348 35.939C15.9 35.7008 15.8138 35.4387 15.781 35.1674C15.7483 34.8962 15.7696 34.6212 15.8439 34.3581L25.1222 1.51928C25.1964 1.25599 25.3222 1.00981 25.4923 0.794836C25.6624 0.579857 25.8735 0.400293 26.1136 0.266415C26.3536 0.132538 26.6179 0.0469735 26.8913 0.014617C27.1646 -0.0177396 27.4417 0.00374631 27.7068 0.0778462ZM12.4614 8.20436C12.854 8.59442 13.0746 9.12337 13.0746 9.67491C13.0746 10.2265 12.854 10.7554 12.4614 11.1455L5.0576 18.5003L12.4614 25.8531C12.656 26.0462 12.8104 26.2755 12.9158 26.5278C13.0211 26.7802 13.0754 27.0507 13.0755 27.3239C13.0756 27.5971 13.0215 27.8677 12.9163 28.1201C12.8111 28.3726 12.6569 28.602 12.4625 28.7952C12.268 28.9885 12.0371 29.1418 11.783 29.2464C11.5289 29.3511 11.2565 29.405 10.9814 29.4051C10.7063 29.4052 10.4339 29.3514 10.1797 29.247C9.92546 29.1425 9.69448 28.9894 9.49988 28.7962L0.61322 19.9709C0.220575 19.5808 0 19.0518 0 18.5003C0 17.9488 0.220575 17.4198 0.61322 17.0298L9.49988 8.20436C9.89265 7.81442 10.4253 7.59537 10.9806 7.59537C11.536 7.59537 12.0686 7.81442 12.4614 8.20436ZM32.5386 11.1455C32.3386 10.9536 32.179 10.7241 32.0692 10.4703C31.9595 10.2165 31.9017 9.94361 31.8993 9.66743C31.8969 9.39125 31.9498 9.11736 32.0552 8.86173C32.1605 8.60611 32.316 8.37388 32.5126 8.17858C32.7093 7.98328 32.9431 7.82884 33.2005 7.72425C33.4579 7.61967 33.7337 7.56704 34.0118 7.56944C34.2899 7.57184 34.5648 7.62922 34.8203 7.73823C35.0758 7.84724 35.3069 8.0057 35.5001 8.20436L44.3868 17.0298C44.7794 17.4198 45 17.9488 45 18.5003C45 19.0518 44.7794 19.5808 44.3868 19.9709L35.5001 28.7962C35.1071 29.1863 34.5742 29.4053 34.0186 29.4051C33.463 29.4049 32.9303 29.1855 32.5375 28.7952C32.1448 28.4049 31.9243 27.8757 31.9245 27.3239C31.9247 26.7722 32.1456 26.2431 32.5386 25.8531L39.9424 18.5003L32.5386 11.1455Z" fill="white"/>
</svg>
