<svg preserveAspectRatio="none" width="100%" height="100%" overflow="visible" style="display: block;" viewBox="0 0 16 16" fill="none" xmlns="http://www.w3.org/2000/svg">
<g id="ic:baseline-whatsapp">
<path id="Vector" d="M12.7 3.27333C12.0887 2.65607 11.3607 2.16664 10.5583 1.83357C9.756 1.50051 8.89539 1.33046 8.02667 1.33333C4.38667 1.33333 1.42 4.3 1.42 7.94C1.42 9.10667 1.72667 10.24 2.3 11.24L1.36667 14.6667L4.86667 13.7467C5.83333 14.2733 6.92 14.5533 8.02667 14.5533C11.6667 14.5533 14.6333 11.5867 14.6333 7.94667C14.6333 6.18 13.9467 4.52 12.7 3.27333ZM8.02667 13.4333C7.04 13.4333 6.07333 13.1667 5.22667 12.6667L5.02667 12.5467L2.94667 13.0933L3.5 11.0667L3.36667 10.86C2.81837 9.98471 2.52728 8.97285 2.52667 7.94C2.52667 4.91333 4.99333 2.44667 8.02 2.44667C9.48667 2.44667 10.8667 3.02 11.9 4.06C12.4117 4.56924 12.8173 5.17503 13.0931 5.84222C13.3689 6.50941 13.5095 7.22472 13.5067 7.94667C13.52 10.9733 11.0533 13.4333 8.02667 13.4333ZM11.04 9.32667C10.8733 9.24667 10.06 8.84667 9.91333 8.78667C9.76 8.73333 9.65333 8.70667 9.54 8.86667C9.42667 9.03333 9.11333 9.40667 9.02 9.51333C8.92667 9.62667 8.82667 9.64 8.66 9.55333C8.49333 9.47333 7.96 9.29333 7.33333 8.73333C6.84 8.29333 6.51333 7.75333 6.41333 7.58667C6.32 7.42 6.4 7.33333 6.48667 7.24667C6.56 7.17333 6.65333 7.05333 6.73333 6.96C6.81333 6.86667 6.84667 6.79333 6.9 6.68667C6.95333 6.57333 6.92667 6.48 6.88667 6.4C6.84667 6.32 6.51333 5.50667 6.38 5.17333C6.24667 4.85333 6.10667 4.89333 6.00667 4.88667H5.68667C5.57333 4.88667 5.4 4.92667 5.24667 5.09333C5.1 5.26 4.67333 5.66 4.67333 6.47333C4.67333 7.28667 5.26667 8.07333 5.34667 8.18C5.42667 8.29333 6.51333 9.96 8.16667 10.6733C8.56 10.8467 8.86667 10.9467 9.10667 11.02C9.5 11.1467 9.86 11.1267 10.1467 11.0867C10.4667 11.04 11.1267 10.6867 11.26 10.3C11.4 9.91333 11.4 9.58667 11.3533 9.51333C11.3067 9.44 11.2067 9.40667 11.04 9.32667Z" fill="var(--fill-0, #00419C)"/>
</g>
</svg>
