<svg width="45" height="45" viewBox="0 0 45 45" fill="none" xmlns="http://www.w3.org/2000/svg">
<path d="M24.1875 19.6875C23.0625 19.4062 21.9375 18.8437 21.0938 18C20.25 17.7187 19.9688 16.875 19.9688 16.3125C19.9688 15.75 20.25 14.9062 20.8125 14.625C21.6562 14.0625 22.5 13.5 23.3438 13.7812C25.0312 13.7812 26.4375 14.625 27.2812 15.75L29.8125 12.375C28.9688 11.5312 28.125 10.9687 27.2812 10.4062C26.4375 9.84375 25.3125 9.5625 24.1875 9.5625V5.625H20.8125V9.5625C19.4062 9.84375 18 10.6875 16.875 11.8125C15.75 13.2187 14.9062 14.9062 15.1875 16.5938C15.1875 18.2812 15.75 19.9688 16.875 21.0938C18.2812 22.5 20.25 23.3438 21.9375 24.1875C22.7812 24.4688 23.9062 25.0313 24.75 25.5938C25.3125 26.1563 25.5938 27 25.5938 27.8437C25.5938 28.6875 25.3125 29.5312 24.75 30.375C23.9062 31.2188 22.7812 31.5 21.9375 31.5C20.8125 31.5 19.4063 31.2188 18.5625 30.375C17.7188 29.8125 16.875 28.9688 16.3125 28.125L13.5 31.2188C14.3438 32.3438 15.1875 33.1875 16.3125 34.0312C17.7188 34.875 19.4062 35.7188 21.0938 35.7188V39.375H24.1875V35.1562C25.875 34.875 27.2813 34.0312 28.4063 32.9062C29.8125 31.5 30.6562 29.25 30.6562 27.2812C30.6562 25.5938 30.0938 23.625 28.6875 22.5C27.2812 21.0938 25.875 20.25 24.1875 19.6875ZM22.5 0C10.125 0 0 10.125 0 22.5C0 34.875 10.125 45 22.5 45C34.875 45 45 34.875 45 22.5C45 10.125 34.875 0 22.5 0ZM22.5 41.9062C11.8125 41.9062 3.09375 33.1875 3.09375 22.5C3.09375 11.8125 11.8125 3.09375 22.5 3.09375C33.1875 3.09375 41.9062 11.8125 41.9062 22.5C41.9062 33.1875 33.1875 41.9062 22.5 41.9062Z" fill="white"/>
</svg>
