<svg preserveAspectRatio="none" width="100%" height="100%" overflow="visible" style="display: block;" viewBox="0 0 16 16" fill="none" xmlns="http://www.w3.org/2000/svg">
<g id="ic:round-share">
<path id="Vector" d="M12 10.72C11.4933 10.72 11.04 10.92 10.6933 11.2333L5.94 8.46667C5.97333 8.31333 6 8.16 6 8C6 7.84 5.97333 7.68667 5.94 7.53333L10.64 4.79333C11 5.12667 11.4733 5.33333 12 5.33333C13.1067 5.33333 14 4.44 14 3.33333C14 2.22667 13.1067 1.33333 12 1.33333C10.8933 1.33333 10 2.22667 10 3.33333C10 3.49333 10.0267 3.64667 10.06 3.8L5.36 6.54C5 6.20667 4.52667 6 4 6C2.89333 6 2 6.89333 2 8C2 9.10667 2.89333 10 4 10C4.52667 10 5 9.79333 5.36 9.46L10.1067 12.2333C10.0733 12.3733 10.0533 12.52 10.0533 12.6667C10.0533 13.74 10.9267 14.6133 12 14.6133C13.0733 14.6133 13.9467 13.74 13.9467 12.6667C13.9467 11.5933 13.0733 10.72 12 10.72Z" fill="var(--fill-0, black)" fill-opacity="0.5"/>
</g>
</svg>
