<svg preserveAspectRatio="none" width="100%" height="100%" overflow="visible" style="display: block;" viewBox="0 0 16 16" fill="none" xmlns="http://www.w3.org/2000/svg">
<g id="uil:instagram">
<path id="Vector" d="M11.56 3.64C11.4018 3.64 11.2471 3.68692 11.1155 3.77482C10.984 3.86273 10.8814 3.98767 10.8209 4.13385C10.7603 4.28003 10.7445 4.44089 10.7754 4.59607C10.8062 4.75126 10.8824 4.8938 10.9943 5.00569C11.1062 5.11757 11.2487 5.19376 11.4039 5.22463C11.5591 5.2555 11.72 5.23965 11.8661 5.1791C12.0123 5.11855 12.1373 5.01602 12.2252 4.88446C12.3131 4.7529 12.36 4.59823 12.36 4.44C12.36 4.22783 12.2757 4.02434 12.1257 3.87431C11.9757 3.72429 11.7722 3.64 11.56 3.64ZM14.6267 5.25333C14.6136 4.70021 14.51 4.15297 14.32 3.63333C14.1513 3.18837 13.8873 2.78564 13.5467 2.45333C13.2165 2.11162 12.813 1.84945 12.3667 1.68667C11.8484 1.49077 11.3006 1.38481 10.7467 1.37333C10.04 1.33333 9.81333 1.33333 8 1.33333C6.18667 1.33333 5.96 1.33333 5.25333 1.37333C4.69944 1.38481 4.15156 1.49077 3.63333 1.68667C3.18799 1.8515 2.78491 2.11339 2.45333 2.45333C2.11162 2.78345 1.84945 3.18696 1.68667 3.63333C1.49077 4.15156 1.38481 4.69944 1.37333 5.25333C1.33333 5.96 1.33333 6.18667 1.33333 8C1.33333 9.81333 1.33333 10.04 1.37333 10.7467C1.38481 11.3006 1.49077 11.8484 1.68667 12.3667C1.84945 12.813 2.11162 13.2165 2.45333 13.5467C2.78491 13.8866 3.18799 14.1485 3.63333 14.3133C4.15156 14.5092 4.69944 14.6152 5.25333 14.6267C5.96 14.6667 6.18667 14.6667 8 14.6667C9.81333 14.6667 10.04 14.6667 10.7467 14.6267C11.3006 14.6152 11.8484 14.5092 12.3667 14.3133C12.813 14.1505 13.2165 13.8884 13.5467 13.5467C13.8882 13.2151 14.1522 12.8121 14.32 12.3667C14.51 11.847 14.6136 11.2998 14.6267 10.7467C14.6267 10.04 14.6667 9.81333 14.6667 8C14.6667 6.18667 14.6667 5.96 14.6267 5.25333ZM13.4267 10.6667C13.4219 11.0899 13.3453 11.5092 13.2 11.9067C13.0936 12.1968 12.9226 12.4589 12.7 12.6733C12.4836 12.8935 12.2221 13.0641 11.9333 13.1733C11.5358 13.3186 11.1165 13.3953 10.6933 13.4C10.0267 13.4333 9.78 13.44 8.02667 13.44C6.27333 13.44 6.02667 13.44 5.36 13.4C4.92057 13.4086 4.48297 13.341 4.06667 13.2C3.79079 13.0849 3.54127 12.9148 3.33333 12.7C3.11206 12.4858 2.94323 12.2235 2.84 11.9333C2.6767 11.5303 2.5864 11.1014 2.57333 10.6667C2.57333 10 2.53333 9.75333 2.53333 8C2.53333 6.24667 2.53333 6 2.57333 5.33333C2.57576 4.90065 2.65476 4.47181 2.80667 4.06667C2.92403 3.78527 3.10418 3.53444 3.33333 3.33333C3.53528 3.10346 3.78575 2.9213 4.06667 2.8C4.47293 2.65299 4.9013 2.57633 5.33333 2.57333C6 2.57333 6.24667 2.53333 8 2.53333C9.75333 2.53333 10 2.53333 10.6667 2.57333C11.0899 2.57806 11.5092 2.65471 11.9067 2.8C12.2096 2.91243 12.4815 3.09523 12.7 3.33333C12.9178 3.53868 13.0884 3.7889 13.2 4.06667C13.3483 4.47259 13.425 4.90117 13.4267 5.33333C13.46 6 13.4667 6.24667 13.4667 8C13.4667 9.75333 13.46 10 13.4267 10.6667ZM8 4.58C7.32387 4.58132 6.66331 4.78302 6.10177 5.15961C5.54023 5.53621 5.10292 6.0708 4.84509 6.69584C4.58726 7.32087 4.52048 8.00831 4.6532 8.67129C4.78591 9.33426 5.11216 9.94302 5.59072 10.4207C6.06928 10.8983 6.67867 11.2233 7.34191 11.3548C8.00514 11.4862 8.69244 11.4181 9.31698 11.159C9.94151 10.9 10.4753 10.4616 10.8508 9.89936C11.2263 9.33709 11.4267 8.67613 11.4267 8C11.4275 7.55007 11.3395 7.1044 11.1675 6.68864C10.9955 6.27287 10.743 5.89521 10.4246 5.57737C10.1061 5.25953 9.72797 5.00779 9.31187 4.83662C8.89576 4.66545 8.44993 4.57824 8 4.58ZM8 10.22C7.56093 10.22 7.13171 10.0898 6.76663 9.84586C6.40156 9.60193 6.11701 9.25521 5.94899 8.84956C5.78096 8.44391 5.737 7.99754 5.82266 7.5669C5.90832 7.13626 6.11975 6.7407 6.43022 6.43022C6.7407 6.11975 7.13626 5.90832 7.5669 5.82266C7.99754 5.737 8.44391 5.78096 8.84956 5.94899C9.25521 6.11701 9.60193 6.40156 9.84586 6.76663C10.0898 7.13171 10.22 7.56093 10.22 8C10.22 8.29153 10.1626 8.58021 10.051 8.84956C9.93945 9.1189 9.77592 9.36363 9.56978 9.56978C9.36363 9.77592 9.1189 9.93945 8.84956 10.051C8.58021 10.1626 8.29153 10.22 8 10.22Z" fill="var(--fill-0, #00419C)"/>
</g>
</svg>
