<svg preserveAspectRatio="none" width="100%" height="100%" overflow="visible" style="display: block;" viewBox="0 0 104 104" fill="none" xmlns="http://www.w3.org/2000/svg">
<g id="container-icon-hubungi-kami" filter="url(#filter0_d_201_719)">
<rect x="8" y="8" width="88" height="88" rx="44" fill="url(#paint0_linear_201_719)" shape-rendering="crispEdges"/>
<path id="icon-outline-whatsapp" d="M67.9422 36.0476C65.8687 33.9643 63.3993 32.3125 60.6778 31.1884C57.9563 30.0643 55.0371 29.4904 52.0904 29.5001C39.7437 29.5001 29.6809 39.5126 29.6809 51.7976C29.6809 55.7351 30.7211 59.56 32.6658 62.935L29.5 74.5L41.3719 71.395C44.6508 73.1725 48.3367 74.1175 52.0904 74.1175C64.4372 74.1175 74.5 64.105 74.5 51.8201C74.5 45.8576 72.1708 40.2551 67.9422 36.0476ZM52.0904 70.3375C48.7437 70.3375 45.4648 69.4375 42.593 67.75L41.9146 67.345L34.8593 69.19L36.7362 62.35L36.2839 61.6525C34.4241 58.6984 33.4368 55.2834 33.4347 51.7976C33.4347 41.5826 41.8015 33.2576 52.0678 33.2576C57.0427 33.2576 61.7236 35.1926 65.2286 38.7026C66.9645 40.4213 68.34 42.4658 69.2755 44.7176C70.211 46.9693 70.6879 49.3835 70.6784 51.8201C70.7236 62.035 62.3568 70.3375 52.0904 70.3375ZM62.3116 56.4776C61.7462 56.2076 58.9874 54.8576 58.4899 54.6551C57.9698 54.4751 57.608 54.3851 57.2236 54.9251C56.8392 55.4876 55.7764 56.7476 55.4598 57.1076C55.1432 57.49 54.804 57.535 54.2387 57.2425C53.6734 56.9725 51.8643 56.3651 49.7387 54.4751C48.0653 52.9901 46.9573 51.1676 46.6181 50.6051C46.3015 50.0426 46.5729 49.7501 46.8668 49.4576C47.1156 49.2101 47.4322 48.8051 47.7035 48.4901C47.9749 48.1751 48.0879 47.9276 48.2688 47.5676C48.4497 47.1851 48.3593 46.8701 48.2236 46.6001C48.0879 46.3301 46.9573 43.5851 46.505 42.4601C46.0528 41.3801 45.5779 41.5151 45.2387 41.4926H44.1533C43.7688 41.4926 43.1809 41.6276 42.6608 42.1901C42.1633 42.7526 40.7161 44.1026 40.7161 46.8476C40.7161 49.5926 42.7286 52.2476 43 52.6076C43.2714 52.9901 46.9573 58.615 52.5653 61.0225C53.8995 61.6075 54.9397 61.945 55.7538 62.1925C57.0879 62.62 58.309 62.5525 59.2814 62.4175C60.3668 62.26 62.6055 61.0675 63.0578 59.7625C63.5327 58.4575 63.5327 57.355 63.3744 57.1076C63.2161 56.8601 62.8769 56.7475 62.3116 56.4776Z" fill="var(--fill-0, white)"/>
</g>
<defs>
<filter id="filter0_d_201_719" x="0" y="0" width="104" height="104" filterUnits="userSpaceOnUse" color-interpolation-filters="sRGB">
<feFlood flood-opacity="0" result="BackgroundImageFix"/>
<feColorMatrix in="SourceAlpha" type="matrix" values="0 0 0 0 0 0 0 0 0 0 0 0 0 0 0 0 0 0 127 0" result="hardAlpha"/>
<feOffset/>
<feGaussianBlur stdDeviation="4"/>
<feComposite in2="hardAlpha" operator="out"/>
<feColorMatrix type="matrix" values="0 0 0 0 0 0 0 0 0 0 0 0 0 0 0 0 0 0 0.25 0"/>
<feBlend mode="normal" in2="BackgroundImageFix" result="effect1_dropShadow_201_719"/>
<feBlend mode="normal" in="SourceGraphic" in2="effect1_dropShadow_201_719" result="shape"/>
</filter>
<linearGradient id="paint0_linear_201_719" x1="8" y1="52" x2="96" y2="52" gradientUnits="userSpaceOnUse">
<stop stop-color="#006AFF"/>
<stop offset="1" stop-color="#004099"/>
</linearGradient>
</defs>
</svg>
