<svg preserveAspectRatio="none" width="100%" height="100%" overflow="visible" style="display: block;" viewBox="0 0 145.894 36" fill="none" xmlns="http://www.w3.org/2000/svg">
<g id="logo-modernweb" clip-path="url(#clip0_193_427)">
<path id="Vector" d="M0 27.8003V13.4095C0 12.2536 0.508586 11.1324 1.52576 10.0459C2.82035 8.70509 4.4039 8.02312 6.27642 8V12.612C5.35172 12.7507 4.83158 13.213 4.71599 13.999V27.8003H0ZM7.87154 12.612V8C9.44354 8.02312 10.7844 8.45079 11.8941 9.28303C12.9574 8.42768 14.2867 8 15.8818 8V12.612C14.8184 12.6351 14.2751 13.0974 14.252 13.999V27.8003H9.536V13.999C9.48976 13.0974 8.93494 12.6351 7.87154 12.612ZM17.4423 12.612V8C19.6846 8 21.4531 8.89003 22.7477 10.6701C23.4412 11.641 23.788 12.5542 23.788 13.4095V27.8003H19.072V13.999C19.0257 13.0974 18.4825 12.6351 17.4423 12.612ZM32.0965 28C30.9128 28 29.8475 27.741 28.9007 27.2231C27.9538 26.6905 27.2066 25.9434 26.6592 24.9817C26.1266 24.02 25.8603 22.9104 25.8603 21.6527C25.8603 20.3952 26.134 19.2855 26.6814 18.3238C27.2436 17.3622 28.0055 16.6224 28.9673 16.1046C29.929 15.5719 31.0016 15.3056 32.1852 15.3056C33.3689 15.3056 34.4415 15.5719 35.4032 16.1046C36.3649 16.6224 37.1195 17.3622 37.6669 18.3238C38.2291 19.2855 38.5102 20.3952 38.5102 21.6527C38.5102 22.9104 38.2217 24.02 37.6447 24.9817C37.0824 25.9434 36.3131 26.6905 35.3366 27.2231C34.3749 27.741 33.2949 28 32.0965 28ZM32.0965 25.2924C32.6587 25.2924 33.1839 25.1592 33.6721 24.8929C34.1751 24.6118 34.5746 24.1976 34.8706 23.6501C35.1665 23.1027 35.3144 22.4369 35.3144 21.6527C35.3144 20.4839 35.0037 19.5888 34.3823 18.9674C33.7757 18.3313 33.0286 18.0131 32.1408 18.0131C31.2531 18.0131 30.506 18.3313 29.8994 18.9674C29.3076 19.5888 29.0116 20.4839 29.0116 21.6527C29.0116 22.8216 29.3001 23.7241 29.8772 24.3603C30.4689 24.9817 31.2087 25.2924 32.0965 25.2924ZM39.9903 21.6083C39.9903 20.3655 40.2345 19.2633 40.7227 18.3017C41.2257 17.34 41.9064 16.6002 42.7645 16.0824C43.6225 15.5645 44.5768 15.3056 45.6273 15.3056C46.4263 15.3056 47.1883 15.4832 47.9132 15.8382C48.6381 16.1785 49.2151 16.6372 49.6442 17.2142V11.3775H52.7956V27.8003H49.6442V25.9803C49.2595 26.587 48.7196 27.0752 48.0242 27.4451C47.3288 27.815 46.5225 28 45.6051 28C44.5695 28 43.6225 27.7337 42.7645 27.2009C41.9064 26.6683 41.2257 25.9212 40.7227 24.9595C40.2345 23.983 39.9903 22.866 39.9903 21.6083ZM49.6664 21.6527C49.6664 20.8982 49.5185 20.2546 49.2226 19.7219C48.9266 19.1746 48.5272 18.7603 48.0242 18.4792C47.5212 18.1833 46.9811 18.0353 46.4041 18.0353C45.8271 18.0353 45.2944 18.1759 44.8062 18.457C44.318 18.7381 43.9185 19.1524 43.6078 19.6998C43.3118 20.2324 43.1639 20.8687 43.1639 21.6083C43.1639 22.3481 43.3118 22.9992 43.6078 23.5613C43.9185 24.1088 44.318 24.5305 44.8062 24.8263C45.3092 25.1222 45.8418 25.2702 46.4041 25.2702C46.9811 25.2702 47.5212 25.1297 48.0242 24.8485C48.5272 24.5527 48.9266 24.1383 49.2226 23.6057C49.5185 23.0583 49.6664 22.4073 49.6664 21.6527ZM67.2595 21.3864C67.2595 21.8303 67.2299 22.2297 67.1707 22.5848H58.1826C58.2566 23.4725 58.5673 24.168 59.1147 24.671C59.6621 25.1741 60.3353 25.4255 61.1343 25.4255C62.2883 25.4255 63.1094 24.9299 63.5977 23.9386H66.9488C66.5937 25.1222 65.9132 26.0987 64.9071 26.8681C63.901 27.6226 62.6656 28 61.2009 28C60.0172 28 58.9519 27.741 58.0051 27.2231C57.073 26.6905 56.3406 25.9434 55.808 24.9817C55.2901 24.02 55.0312 22.9104 55.0312 21.6527C55.0312 20.3804 55.2901 19.2633 55.808 18.3017C56.3259 17.34 57.0508 16.6002 57.9829 16.0824C58.915 15.5645 59.9877 15.3056 61.2009 15.3056C62.3696 15.3056 63.4127 15.5571 64.3301 16.0602C65.2622 16.5632 65.9798 17.2808 66.4828 18.2129C67.0006 19.1302 67.2595 20.188 67.2595 21.3864ZM64.0415 20.4987C64.0268 19.6998 63.7383 19.0636 63.176 18.5902C62.6138 18.1019 61.9258 17.8578 61.1121 17.8578C60.3428 17.8578 59.6917 18.0945 59.1591 18.568C58.6412 19.0266 58.3232 19.6702 58.2048 20.4987H64.0415ZM72.6343 17.4139C73.0338 16.7629 73.5516 16.2525 74.1878 15.8826C74.8388 15.5128 75.5786 15.3278 76.4071 15.3278V18.5902H75.586C74.6095 18.5902 73.8698 18.8195 73.3667 19.2781C72.8784 19.7368 72.6343 20.5358 72.6343 21.6749V27.8003H69.5273V15.5054H72.6343V17.4139ZM85.3131 15.3278C86.7778 15.3278 87.9614 15.7939 88.8639 16.726C89.7664 17.6433 90.2177 18.9305 90.2177 20.5875V27.8003H87.1107V21.0091C87.1107 20.0326 86.8666 19.2855 86.3783 18.7677C85.8901 18.2351 85.2243 17.9688 84.381 17.9688C83.5228 17.9688 82.8422 18.2351 82.3392 18.7677C81.851 19.2855 81.6069 20.0326 81.6069 21.0091V27.8003H78.4999V15.5054H81.6069V17.0367C82.0211 16.504 82.5463 16.0898 83.1826 15.7939C83.8335 15.4832 84.5437 15.3278 85.3131 15.3278Z" fill="var(--fill-0, black)"/>
<path id="Vector_2" d="M113.207 13.1871L106.068 27.7861H104.196L102.325 15.5668L96.0947 27.7861H94.2231L92.2177 13.1871H94.1428L95.5599 25.8074L101.843 13.1871H103.742L105.533 25.8341L111.362 13.1871H113.207ZM122.123 12.9732C123.353 12.9732 124.404 13.2139 125.278 13.6952C126.151 14.1586 126.81 14.8003 127.257 15.6203C127.719 16.4403 127.952 17.3761 127.952 18.4277C127.952 18.909 127.916 19.3368 127.845 19.7111C127.738 20.2459 127.631 20.7272 127.524 21.155H115.412C115.358 21.4937 115.331 21.8146 115.331 22.1175C115.331 23.4901 115.74 24.5507 116.561 25.2993C117.398 26.048 118.46 26.4223 119.743 26.4223C120.973 26.4223 122.051 26.1282 122.978 25.54C123.905 24.9517 124.583 24.1586 125.011 23.1603H127.016C126.409 24.5864 125.438 25.7539 124.101 26.663C122.782 27.5543 121.24 28 119.476 28C117.658 28 116.195 27.483 115.091 26.4491C114.003 25.3975 113.459 23.9714 113.459 22.171C113.459 21.6363 113.513 21.0748 113.62 20.4865C113.888 18.9714 114.422 17.6435 115.224 16.5026C116.044 15.3618 117.051 14.4884 118.246 13.8823C119.44 13.2763 120.732 12.9732 122.123 12.9732ZM125.92 19.7646C126.008 19.2655 126.053 18.8467 126.053 18.5079C126.053 17.2424 125.652 16.2709 124.85 15.5936C124.048 14.9162 123.023 14.5775 121.775 14.5775C120.866 14.5775 119.992 14.7736 119.155 15.1658C118.317 15.5579 117.585 16.1461 116.962 16.9305C116.338 17.7147 115.91 18.6595 115.679 19.7646H125.92ZM133.702 16.4224C134.343 15.4064 135.226 14.5775 136.349 13.9358C137.472 13.2941 138.711 12.9732 140.065 12.9732C141.83 12.9732 143.238 13.4991 144.29 14.5508C145.359 15.5846 145.894 16.9928 145.894 18.7753C145.894 19.3101 145.841 19.8716 145.734 20.4598C145.466 21.9571 144.932 23.2762 144.129 24.417C143.327 25.5579 142.338 26.4402 141.162 27.064C140.002 27.688 138.755 28 137.418 28C136.045 28 134.914 27.688 134.023 27.064C133.131 26.4223 132.535 25.5935 132.231 24.5774L131.67 27.7861H129.825L133.327 8H135.172L133.702 16.4224ZM143.835 20.4598C143.925 19.925 143.969 19.4705 143.969 19.0962C143.969 17.688 143.551 16.5918 142.712 15.8075C141.893 15.0053 140.805 14.6043 139.45 14.6043C138.452 14.6043 137.498 14.8449 136.589 15.3262C135.68 15.8075 134.905 16.4937 134.263 17.3849C133.621 18.2762 133.194 19.3101 132.98 20.4865C132.89 20.9857 132.846 21.4313 132.846 21.8234C132.846 23.2138 133.265 24.319 134.103 25.1389C134.941 25.959 136.028 26.3689 137.365 26.3689C138.398 26.3689 139.361 26.1372 140.252 25.6737C141.162 25.1924 141.928 24.5062 142.552 23.6149C143.194 22.7058 143.621 21.6542 143.835 20.4598Z" fill="var(--fill-0, #00419C)"/>
</g>
<defs>
<clipPath id="clip0_193_427">
<rect width="145.894" height="36" fill="white"/>
</clipPath>
</defs>
</svg>
