<svg preserveAspectRatio="none" width="100%" height="100%" overflow="visible" style="display: block;" viewBox="0 0 156 41" fill="none" xmlns="http://www.w3.org/2000/svg">
<g id="Logo" clip-path="url(#clip0_131_594)">
<path id="Vector" fill-rule="evenodd" clip-rule="evenodd" d="M23.8995 8.74857C22.4926 8.74857 21.0995 9.02512 19.7997 9.56237C18.5 10.0996 17.3189 10.887 16.3241 11.8798C15.3293 12.8725 14.5402 14.051 14.0018 15.348C13.5229 16.5015 13.2508 17.7287 13.1964 18.9737C13.184 19.2587 13.0251 19.5195 12.7699 19.6468L9.31734 21.3695C9.06221 21.4968 8.89869 21.7576 8.91113 22.0425C8.96549 23.2875 9.23764 24.5147 9.71647 25.6683C10.2549 26.9653 11.044 28.1438 12.0388 29.1365C13.0336 30.1292 14.2147 30.9166 15.5144 31.4539C16.8142 31.9911 18.2073 32.2677 19.6142 32.2677C21.0211 32.2677 22.4142 31.9911 23.714 31.4539C25.0138 30.9166 26.1948 30.1292 27.1896 29.1365C28.1845 28.1438 28.9736 26.9653 29.512 25.6683C29.9908 24.5147 30.263 23.2875 30.3173 22.0425C30.3298 21.7576 30.4887 21.4968 30.7438 21.3695L34.1964 19.6468C34.4516 19.5195 34.6151 19.2587 34.6026 18.9737C34.5483 17.7287 34.2761 16.5015 33.7973 15.348C33.2589 14.051 32.4698 12.8725 31.4749 11.8798C30.4801 10.887 29.2991 10.0996 27.9993 9.56237C26.6995 9.02512 25.3064 8.74857 23.8995 8.74857ZM28.8484 17.3936C29.058 17.8984 29.1884 18.4315 29.2359 18.9742C29.2607 19.2583 29.0949 19.5195 28.8398 19.6468L25.3872 21.3695C25.1321 21.4968 24.9754 21.7579 24.9506 22.0421C24.9031 22.5847 24.7727 23.1178 24.5631 23.6227C24.2939 24.2712 23.8993 24.8605 23.402 25.3568C22.9045 25.8532 22.314 26.2469 21.6641 26.5155C21.0143 26.7842 20.3177 26.9224 19.6142 26.9224C18.9108 26.9224 18.2143 26.7842 17.5644 26.5155C16.9145 26.2469 16.324 25.8532 15.8265 25.3568C15.3291 24.8605 14.9346 24.2712 14.6654 23.6227C14.4558 23.1178 14.3254 22.5847 14.2779 22.0421C14.2531 21.7579 14.4188 21.4968 14.674 21.3695L18.1266 19.6468C18.3817 19.5195 18.5384 19.2583 18.5632 18.9742C18.6107 18.4315 18.7411 17.8984 18.9507 17.3936C19.2198 16.745 19.6144 16.1558 20.1118 15.6594C20.6093 15.1631 21.1998 14.7693 21.8497 14.5007C22.4996 14.2321 23.1961 14.0938 23.8995 14.0938C24.603 14.0938 25.2996 14.2321 25.9494 14.5007C26.5993 14.7693 27.1898 15.1631 27.6873 15.6594C28.1846 16.1558 28.5792 16.745 28.8484 17.3936Z" fill="var(--fill-0, #E22935)"/>
<path id="Vector_2" fill-rule="evenodd" clip-rule="evenodd" d="M23.8995 0.1962C21.3671 0.1962 18.8595 0.693931 16.5199 1.66098C14.1803 2.62802 12.0545 4.04546 10.2638 5.83231C8.47313 7.61919 7.0527 9.74051 6.08359 12.0751C5.17401 14.2663 4.67876 16.6052 4.62132 18.9736C4.6144 19.2588 4.45446 19.5195 4.19933 19.6468L0.746717 21.3695C0.491607 21.4967 0.329112 21.7575 0.336026 22.0427C0.393455 24.411 0.888719 26.7499 1.79828 28.9411C2.76738 31.2758 4.18783 33.3971 5.97848 35.1839C7.76918 36.9708 9.89499 38.3884 12.2346 39.3551C14.5743 40.3222 17.0818 40.8202 19.6142 40.8202C22.1466 40.8202 24.6542 40.3222 26.9939 39.3551C29.3335 38.3884 31.4593 36.9708 33.25 35.1839C35.0406 33.3971 36.4611 31.2758 37.4302 28.9411C38.3399 26.7499 38.835 24.411 38.8925 22.0427C38.8993 21.7575 39.0594 21.4967 39.3143 21.3695L42.7669 19.6468C43.0222 19.5195 43.1846 19.2588 43.1778 18.9736C43.1203 16.6052 42.6252 14.2663 41.7155 12.0751C40.7464 9.74051 39.3259 7.61919 37.5353 5.83231C35.7446 4.04546 33.6188 2.62802 31.2792 1.66098C28.9395 0.693934 26.4319 0.1962 23.8995 0.1962ZM33.5336 22.0426C33.5432 21.7575 33.7027 21.4967 33.9578 21.3695L37.4104 19.6468C37.6655 19.5195 37.8287 19.2587 37.8189 18.9736C37.7629 17.3073 37.407 15.6634 36.7666 14.1207C36.0667 12.4345 35.0408 10.9025 33.7476 9.61198C32.4543 8.32146 30.919 7.29777 29.2293 6.59934C27.5395 5.90091 25.7285 5.54143 23.8995 5.54143C22.0706 5.54143 20.2596 5.90091 18.5698 6.59934C16.8801 7.29777 15.3448 8.32146 14.0515 9.61198C12.7582 10.9025 11.7324 12.4345 11.0325 14.1207C10.3921 15.6634 10.0361 17.3073 9.98013 18.9736C9.97054 19.2587 9.81108 19.5195 9.55596 19.6468L6.10336 21.3695C5.84823 21.4967 5.68524 21.7575 5.69483 22.0426C5.75076 23.7089 6.10682 25.3529 6.74717 26.8956C7.44706 28.5817 8.47294 30.1138 9.7662 31.4043C11.0595 32.6948 12.5948 33.7185 14.2845 34.4169C15.9742 35.1153 17.7853 35.4748 19.6142 35.4748C21.4432 35.4748 23.2542 35.1153 24.9439 34.4169C26.6337 33.7185 28.169 32.6948 29.4623 31.4043C30.7555 30.1138 31.7814 28.5817 32.4813 26.8956C33.1217 25.3529 33.4777 23.7089 33.5336 22.0426Z" fill="var(--fill-0, #E22935)"/>
<path id="Vector_3" d="M100.269 6.52603C99.6983 6.52603 99.2156 6.32856 98.8209 5.9336C98.4262 5.53865 98.2289 5.05906 98.2289 4.49484C98.2289 3.91652 98.4262 3.43342 98.8209 3.04551C99.2156 2.65056 99.6983 2.45308 100.269 2.45308C100.84 2.45308 101.32 2.65056 101.707 3.04551C102.102 3.43342 102.299 3.91652 102.299 4.49484C102.299 5.05906 102.102 5.53865 101.707 5.9336C101.32 6.32856 100.84 6.52603 100.269 6.52603Z" fill="var(--fill-0, #370808)"/>
<path id="Vector_4" d="M98.5882 19.2104V7.82728H101.929V19.2104H98.5882Z" fill="var(--fill-0, #370808)"/>
<path id="Vector_5" fill-rule="evenodd" clip-rule="evenodd" d="M103.814 22.5597V7.82728H106.986V8.95925H107.027C107.227 8.76226 107.442 8.58243 107.673 8.41971C108.42 7.8978 109.28 7.63687 110.253 7.63687C111.105 7.63687 111.919 7.85902 112.695 8.30333C113.477 8.74767 114.111 9.40709 114.598 10.2816C115.084 11.1562 115.32 12.2458 115.306 13.5506C115.313 14.538 115.176 15.3984 114.894 16.1319C114.612 16.8583 114.231 17.4613 113.752 17.9409C113.273 18.4205 112.737 18.7802 112.145 19.02C111.553 19.2598 110.954 19.3797 110.348 19.3797C109.389 19.3797 108.529 19.1117 107.768 18.5757C107.576 18.439 107.395 18.2909 107.223 18.1314H107.155V20.6494L103.814 22.5597ZM109.565 16.5868C110.059 16.5798 110.492 16.4493 110.866 16.1954C111.239 15.9415 111.532 15.5818 111.743 15.1163C111.955 14.6508 112.057 14.1078 112.05 13.4871C112.057 12.8524 111.951 12.3093 111.732 11.8579C111.521 11.3995 111.222 11.0504 110.834 10.8106C110.446 10.5637 110.002 10.4439 109.502 10.4509C109.03 10.4439 108.607 10.5602 108.233 10.8C107.86 11.0398 107.564 11.3889 107.345 11.8473C107.127 12.2987 107.018 12.8453 107.018 13.4871C107.018 14.1078 107.127 14.6508 107.345 15.1163C107.57 15.5818 107.874 15.9415 108.254 16.1954C108.635 16.4493 109.072 16.5798 109.565 16.5868Z" fill="var(--fill-0, #370808)"/>
<path id="Vector_6" d="M120.468 19.3797C119.791 19.3797 119.143 19.2633 118.523 19.0305C117.91 18.7978 117.367 18.4699 116.895 18.0467C116.423 17.6165 116.067 17.1157 115.827 16.5445L118.449 15.3913C118.625 15.7228 118.889 16.0367 119.242 16.3329C119.594 16.6291 120.01 16.7772 120.49 16.7772C120.743 16.7772 120.965 16.7349 121.156 16.6503C121.346 16.5586 121.494 16.4422 121.6 16.3011C121.712 16.1601 121.769 16.0085 121.769 15.8462C121.769 15.6417 121.688 15.4654 121.526 15.3173C121.363 15.1692 121.156 15.0422 120.902 14.9364C120.648 14.8306 120.38 14.739 120.098 14.6614C119.823 14.5838 119.57 14.5133 119.337 14.4498C118.801 14.2876 118.294 14.0654 117.815 13.7833C117.342 13.4942 116.958 13.1274 116.662 12.6831C116.366 12.2388 116.218 11.6992 116.218 11.0645C116.218 10.3945 116.391 9.80554 116.736 9.29775C117.089 8.78291 117.564 8.38089 118.163 8.09174C118.77 7.80256 119.46 7.65801 120.236 7.65801C121.201 7.65801 122.068 7.88016 122.836 8.32447C123.612 8.76881 124.161 9.3577 124.486 10.0912L121.917 11.202C121.783 10.9763 121.585 10.7577 121.325 10.5461C121.071 10.3345 120.747 10.2287 120.352 10.2287C120.021 10.2287 119.746 10.3133 119.527 10.4826C119.309 10.6519 119.199 10.8635 119.199 11.1174C119.199 11.3713 119.309 11.5758 119.527 11.731C119.746 11.8861 120.024 12.0201 120.362 12.133C120.701 12.2458 121.053 12.3551 121.42 12.4609C121.702 12.5385 122.03 12.6514 122.403 12.7994C122.777 12.9405 123.14 13.1344 123.492 13.3813C123.851 13.6281 124.147 13.9455 124.38 14.3334C124.62 14.7213 124.739 15.1974 124.739 15.7616C124.739 16.474 124.542 17.1052 124.147 17.6553C123.76 18.1983 123.242 18.6215 122.593 18.9248C121.952 19.228 121.244 19.3797 120.468 19.3797Z" fill="var(--fill-0, #370808)"/>
<path id="Vector_7" d="M138.32 19.2104V7.82728H141.503V9.27661H141.561C141.809 8.93029 142.089 8.63761 142.401 8.39853C143.035 7.90484 143.786 7.65801 144.653 7.65801C145.372 7.65801 145.981 7.83431 146.482 8.18695C146.868 8.44984 147.183 8.80247 147.426 9.24486H147.486C147.846 8.7854 148.283 8.42573 148.797 8.16581C149.467 7.82728 150.196 7.65801 150.986 7.65801C151.74 7.65801 152.36 7.79199 152.847 8.06C153.333 8.32097 153.713 8.66653 153.988 9.09677C154.263 9.51994 154.457 9.98542 154.57 10.4932C154.682 10.9939 154.739 11.4806 154.739 11.9531V19.2104H151.377V12.3657C151.377 11.7451 151.247 11.269 150.986 10.9375C150.732 10.599 150.358 10.4297 149.865 10.4297C149.541 10.4297 149.252 10.5038 148.998 10.6519C148.751 10.7929 148.554 11.008 148.406 11.2972C148.265 11.5864 148.195 11.9425 148.195 12.3657V19.2104H144.854V12.3657C144.854 11.7451 144.724 11.269 144.463 10.9375C144.202 10.599 143.825 10.4297 143.331 10.4297C142.852 10.4297 142.454 10.5955 142.137 10.927C141.82 11.2514 141.661 11.738 141.661 12.3869V19.2104H138.32Z" fill="var(--fill-0, #370808)"/>
<path id="Vector_8" d="M128.009 18.8825C128.651 19.214 129.362 19.3797 130.145 19.3797C131.068 19.3797 131.886 19.154 132.598 18.7026C132.958 18.4707 133.286 18.2061 133.581 17.9092H133.666C133.766 18.1406 133.914 18.3451 134.11 18.5228C134.497 18.8754 135.11 19.161 135.949 19.3797L137.133 16.5868C136.767 16.4528 136.523 16.2941 136.404 16.1107C136.284 15.9274 136.224 15.6312 136.224 15.2221V7.82728H132.883V14.5344C132.883 14.9506 132.802 15.3102 132.64 15.6135C132.485 15.9097 132.266 16.139 131.984 16.3011C131.709 16.4634 131.389 16.5445 131.022 16.5445C130.529 16.5445 130.11 16.3752 129.764 16.0367C129.426 15.6911 129.257 15.1903 129.257 14.5344V7.82728H125.916V14.9788C125.916 15.9379 126.103 16.7455 126.476 17.4014C126.857 18.0502 127.368 18.5439 128.009 18.8825Z" fill="var(--fill-0, #370808)"/>
<path id="Vector_9" fill-rule="evenodd" clip-rule="evenodd" d="M91.354 19.3797C90.2612 19.3797 89.264 19.1293 88.3618 18.6286C87.4668 18.1278 86.7514 17.4366 86.2158 16.555C85.6872 15.6734 85.423 14.6578 85.423 13.5083C85.423 12.3586 85.6872 11.343 86.2158 10.4615C86.7514 9.57986 87.4668 8.89222 88.3618 8.39853C89.264 7.90484 90.2612 7.65801 91.354 7.65801C92.4674 7.65801 93.4718 7.90484 94.3668 8.39853C95.2622 8.89222 95.9704 9.57986 96.4918 10.4615C97.0207 11.343 97.285 12.3586 97.285 13.5083C97.285 14.6578 97.0207 15.6734 96.4918 16.555C95.9704 17.4366 95.2585 18.1278 94.3563 18.6286C93.4613 19.1293 92.4603 19.3797 91.354 19.3797ZM91.354 16.5233C91.8754 16.5233 92.3441 16.3964 92.7599 16.1425C93.176 15.8886 93.5034 15.5359 93.7432 15.0845C93.9827 14.6332 94.1026 14.1077 94.1026 13.5083C94.1026 12.9299 93.9864 12.4151 93.7537 11.9637C93.5211 11.5123 93.2004 11.1597 92.7918 10.9058C92.3828 10.6448 91.9107 10.5144 91.375 10.5144C90.8465 10.5144 90.3706 10.6413 89.9477 10.8952C89.532 11.1421 89.2042 11.4912 88.9644 11.9425C88.7249 12.3939 88.605 12.9158 88.605 13.5083C88.605 14.1077 88.7249 14.6332 88.9644 15.0845C89.2113 15.5359 89.5425 15.8886 89.9582 16.1425C90.374 16.3964 90.8394 16.5233 91.354 16.5233Z" fill="var(--fill-0, #370808)"/>
<path id="Vector_10" fill-rule="evenodd" clip-rule="evenodd" d="M78.1357 23.8229C77.1911 23.8229 76.3242 23.7065 75.5348 23.4738C74.7526 23.2481 74.1357 23.0154 73.6846 22.7756L74.7841 20.152C75.1788 20.3917 75.6371 20.5963 76.1584 20.7656C76.687 20.9419 77.2226 21.03 77.7654 21.03C78.2308 21.03 78.7135 20.9525 79.2138 20.7973C79.7145 20.6421 80.1408 20.3953 80.493 20.0567C80.8456 19.7253 81.0219 19.288 81.0219 18.7449V17.6447H80.9711C80.7644 17.8489 80.5415 18.0358 80.3028 18.2054C79.5487 18.7344 78.6887 18.9988 77.7233 18.9988C77.1241 18.9988 76.5287 18.886 75.9367 18.6603C75.3446 18.4276 74.8052 18.0784 74.3188 17.613C73.8395 17.1404 73.4557 16.5515 73.1666 15.8463C72.8776 15.141 72.7332 14.3123 72.7332 13.3602C72.7332 12.0907 72.9798 11.0363 73.473 10.197C73.9737 9.35067 74.615 8.71592 75.3972 8.29276C76.1795 7.86256 76.9937 7.64744 77.8395 7.64744C78.8191 7.64744 79.6754 7.8978 80.4084 8.39857C80.6437 8.55775 80.8625 8.73409 81.0644 8.92751H81.1275V7.81671H84.1618V18.5545C84.1618 19.422 84.0137 20.1837 83.7179 20.8396C83.4217 21.4955 83.0022 22.0456 82.4597 22.49C81.9241 22.9343 81.2895 23.2658 80.5565 23.4844C79.8235 23.7101 79.0164 23.8229 78.1357 23.8229ZM78.5477 16.28C79.0552 16.28 79.5029 16.1531 79.8904 15.8992C80.2784 15.6453 80.5847 15.2926 80.8103 14.8412C81.0358 14.3828 81.1486 13.8539 81.1486 13.2544C81.1486 12.6478 81.0396 12.1295 80.8208 11.6993C80.6024 11.262 80.3028 10.927 79.9224 10.6942C79.5416 10.4615 79.101 10.3451 78.6007 10.3451C78.1004 10.3451 77.6527 10.465 77.258 10.7048C76.8633 10.9376 76.5531 11.2726 76.3276 11.7098C76.1092 12.1471 75.9998 12.6619 75.9998 13.2544C75.9998 13.8468 76.1092 14.3722 76.3276 14.8307C76.546 15.2821 76.8456 15.6382 77.2264 15.8992C77.6068 16.1531 78.0474 16.28 78.5477 16.28Z" fill="var(--fill-0, #370808)"/>
<path id="Vector_11" fill-rule="evenodd" clip-rule="evenodd" d="M65.9534 19.3797C64.8607 19.3797 63.8634 19.1293 62.9612 18.6286C62.0662 18.1278 61.3509 17.4366 60.8152 16.555C60.2867 15.6734 60.0224 14.6578 60.0224 13.5083C60.0224 12.3586 60.2867 11.343 60.8152 10.4615C61.3509 9.57986 62.0662 8.89222 62.9612 8.39853C63.8634 7.90484 64.8607 7.65801 65.9534 7.65801C67.0668 7.65801 68.0713 7.90484 68.9663 8.39853C69.8617 8.89222 70.5699 9.57986 71.0913 10.4615C71.6202 11.343 71.8844 12.3586 71.8844 13.5083C71.8844 14.6578 71.6202 15.6734 71.0913 16.555C70.5699 17.4366 69.8579 18.1278 68.9558 18.6286C68.0607 19.1293 67.0597 19.3797 65.9534 19.3797ZM65.9534 16.5233C66.4748 16.5233 66.9435 16.3964 67.3593 16.1425C67.7754 15.8886 68.1028 15.5359 68.3427 15.0845C68.5821 14.6332 68.702 14.1077 68.702 13.5083C68.702 12.9299 68.5859 12.4151 68.3532 11.9637C68.1205 11.5123 67.7999 11.1597 67.3912 10.9058C66.9823 10.6448 66.5101 10.5144 65.9745 10.5144C65.4459 10.5144 64.9701 10.6413 64.5472 10.8952C64.1314 11.1421 63.8036 11.4912 63.5638 11.9425C63.3243 12.3939 63.2044 12.9158 63.2044 13.5083C63.2044 14.1077 63.3243 14.6332 63.5638 15.0845C63.8108 15.5359 64.1419 15.8886 64.5577 16.1425C64.9734 16.3964 65.4388 16.5233 65.9534 16.5233Z" fill="var(--fill-0, #370808)"/>
<path id="Vector_12" d="M50.9906 19.2104V3.61679H54.4583V16.1213H60.072V19.2104H50.9906Z" fill="var(--fill-0, #370808)"/>
<path id="Vector_13" fill-rule="evenodd" clip-rule="evenodd" d="M103.819 24.8141V27.9417H103.723C103.586 27.8217 103.441 27.7088 103.29 27.6032C102.55 27.0813 101.697 26.8204 100.731 26.8204C99.8783 26.8204 99.0608 27.0425 98.2785 27.4868C97.4962 27.9312 96.8617 28.5906 96.3757 29.4651C95.8893 30.3397 95.6566 31.4293 95.6776 32.7341C95.6637 33.7214 95.7975 34.5819 96.0795 35.3154C96.3614 36.0418 96.7422 36.6448 97.2215 37.1244C97.7007 37.604 98.2364 37.9637 98.8284 38.2034C99.4205 38.4433 100.019 38.5633 100.626 38.5633C101.584 38.5633 102.444 38.2951 103.205 37.7591C103.587 37.487 103.928 37.1696 104.23 36.8071H104.334C104.414 37.0113 104.534 37.2053 104.696 37.3889C104.914 37.6214 105.203 37.8366 105.563 38.0341C105.929 38.2248 106.374 38.4008 106.895 38.5633L108.069 35.7703C107.744 35.6504 107.512 35.5058 107.371 35.3365C107.23 35.1673 107.159 34.8746 107.159 34.4585V22.9038L103.819 24.8141ZM102.719 35.3789C102.338 35.6328 101.901 35.7632 101.408 35.7703C100.921 35.7632 100.488 35.6328 100.108 35.3789C99.7269 35.125 99.431 34.7653 99.2194 34.2998C99.0153 33.8343 98.9164 33.2912 98.9235 32.6706C98.9164 32.0359 99.022 31.4928 99.2408 31.0414C99.4592 30.583 99.7588 30.2339 100.139 29.9941C100.527 29.7472 100.971 29.6274 101.471 29.6344C101.944 29.6274 102.366 29.7437 102.74 29.9835C103.114 30.2233 103.41 30.5724 103.628 31.0308C103.847 31.4822 103.96 32.0288 103.966 32.6706C103.96 33.2912 103.847 33.8343 103.628 34.2998C103.41 34.7653 103.107 35.125 102.719 35.3789Z" fill="var(--fill-0, #AAAAAA)"/>
<path id="Vector_14" d="M145.291 38.3941V27.0108H148.527V28.5024H148.577C148.667 28.3676 148.766 28.2407 148.876 28.1216C149.27 27.6984 149.742 27.381 150.292 27.1695C150.842 26.9508 151.431 26.8415 152.058 26.8415C152.819 26.8415 153.474 27.0178 154.024 27.3704C154.574 27.7231 154.997 28.2062 155.293 28.8198C155.589 29.4334 155.737 30.1422 155.737 30.9462V38.3941H152.396V31.6761C152.396 30.992 152.234 30.4807 151.91 30.1422C151.585 29.7966 151.145 29.6238 150.588 29.6238C150.222 29.6238 149.89 29.7049 149.594 29.8671C149.298 30.0223 149.062 30.255 148.886 30.5653C148.717 30.8686 148.632 31.2494 148.632 31.7079V38.3941H145.291Z" fill="var(--fill-0, #AAAAAA)"/>
<path id="Vector_15" fill-rule="evenodd" clip-rule="evenodd" d="M138.424 38.5633C137.331 38.5633 136.334 38.3128 135.432 37.8122C134.537 37.3113 133.822 36.6201 133.286 35.7385C132.758 34.857 132.493 33.8414 132.493 32.6917C132.493 31.5422 132.758 30.5266 133.286 29.645C133.822 28.7634 134.537 28.0757 135.432 27.582C136.334 27.0883 137.331 26.8415 138.424 26.8415C139.538 26.8415 140.542 27.0883 141.437 27.582C142.332 28.0757 143.041 28.7634 143.562 29.645C144.091 30.5266 144.355 31.5422 144.355 32.6917C144.355 33.8414 144.091 34.857 143.562 35.7385C143.041 36.6201 142.329 37.3113 141.427 37.8122C140.532 38.3128 139.531 38.5633 138.424 38.5633ZM138.424 35.7068C138.946 35.7068 139.414 35.5798 139.83 35.3259C140.246 35.072 140.574 34.7194 140.813 34.268C141.053 33.8166 141.173 33.2912 141.173 32.6917C141.173 32.1134 141.057 31.5986 140.824 31.1472C140.591 30.6958 140.271 30.3432 139.862 30.0893C139.453 29.8283 138.981 29.6978 138.445 29.6978C137.917 29.6978 137.441 29.8248 137.018 30.0787C136.602 30.3256 136.274 30.6747 136.035 31.126C135.795 31.5774 135.675 32.0993 135.675 32.6917C135.675 33.2912 135.795 33.8166 136.035 34.268C136.282 34.7194 136.613 35.072 137.029 35.3259C137.444 35.5798 137.91 35.7068 138.424 35.7068Z" fill="var(--fill-0, #AAAAAA)"/>
<path id="Vector_16" d="M128.174 38.3941V27.0108H131.514V38.3941H128.174Z" fill="var(--fill-0, #AAAAAA)"/>
<path id="Vector_17" d="M128.406 25.1171C128.801 25.512 129.284 25.7095 129.855 25.7095C130.425 25.7095 130.905 25.512 131.293 25.1171C131.687 24.7221 131.885 24.2425 131.885 23.6783C131.885 23.1 131.687 22.6169 131.293 22.229C130.905 21.834 130.425 21.6366 129.855 21.6366C129.284 21.6366 128.801 21.834 128.406 22.229C128.011 22.6169 127.814 23.1 127.814 23.6783C127.814 24.2425 128.011 24.7221 128.406 25.1171Z" fill="var(--fill-0, #AAAAAA)"/>
<path id="Vector_18" d="M122.036 37.3994C122.719 38.1751 123.763 38.5633 125.165 38.5633C125.595 38.5633 126.018 38.5242 126.434 38.4467C126.857 38.3692 127.227 38.253 127.544 38.0976L126.466 35.4635C126.346 35.527 126.208 35.5798 126.053 35.6222C125.898 35.6645 125.74 35.6856 125.577 35.6856C125.232 35.6856 124.939 35.5798 124.7 35.3683C124.467 35.1496 124.351 34.797 124.351 34.3103V29.7825H126.984V27.0108H124.351V23.7312H121.01V27.0108H119.107V29.7825H121.01V34.395C121.01 35.6151 121.352 36.6166 122.036 37.3994Z" fill="var(--fill-0, #AAAAAA)"/>
<path id="Vector_19" fill-rule="evenodd" clip-rule="evenodd" d="M110.369 38.0976C110.954 38.408 111.63 38.5633 112.399 38.5633C113.286 38.5633 114.069 38.3869 114.746 38.0341C115.293 37.752 115.693 37.4382 115.947 37.0927H115.998C116.097 37.2619 116.229 37.4312 116.395 37.6005C116.726 37.9389 117.22 38.2176 117.875 38.4362L118.266 38.5633L119.44 35.7703L119.186 35.6856C118.939 35.608 118.766 35.4705 118.668 35.2731C118.576 35.0685 118.53 34.7723 118.53 34.3844V30.9568C118.53 30.5477 118.481 30.1069 118.383 29.6344C118.291 29.1548 118.094 28.707 117.791 28.2908C117.487 27.8677 117.022 27.5221 116.395 27.2541C115.767 26.979 114.922 26.8415 113.857 26.8415C113.174 26.8415 112.532 26.8979 111.933 27.0108C111.341 27.1165 110.813 27.2506 110.348 27.4127C109.889 27.575 109.519 27.7372 109.237 27.8994L110.348 30.4172C110.608 30.248 110.918 30.0999 111.278 29.9729C111.637 29.8389 112.011 29.7367 112.399 29.6661C112.786 29.5885 113.149 29.5498 113.488 29.5498C113.783 29.5498 114.048 29.585 114.28 29.6555C114.513 29.719 114.71 29.8142 114.872 29.9412C115.034 30.0681 115.154 30.2233 115.232 30.4067C115.316 30.583 115.359 30.7805 115.359 30.9991V31.5704H113.212C112.226 31.5704 111.38 31.722 110.675 32.0252C109.977 32.3285 109.442 32.7446 109.068 33.2736C108.702 33.8025 108.518 34.4091 108.518 35.0932C108.518 35.7421 108.68 36.3274 109.005 36.8493C109.336 37.3712 109.791 37.7873 110.369 38.0976ZM113.614 33.665H115.517V34.3738C115.517 34.7899 115.383 35.1214 115.116 35.3683C114.855 35.6151 114.545 35.7914 114.185 35.8972C113.826 36.003 113.512 36.0559 113.244 36.0559C112.955 36.0559 112.694 36.0101 112.462 35.9184C112.237 35.8196 112.06 35.6856 111.933 35.5164C111.807 35.34 111.743 35.1285 111.743 34.8816C111.743 34.4655 111.902 34.1587 112.219 33.9612C112.543 33.7638 113.008 33.665 113.614 33.665Z" fill="var(--fill-0, #AAAAAA)"/>
<path id="Vector_20" d="M84.4652 38.3941V27.0108H87.7002V28.5024H87.7513C87.8408 28.3676 87.94 28.2407 88.0494 28.1216C88.4441 27.6984 88.9162 27.381 89.4658 27.1695C90.0158 26.9508 90.6041 26.8415 91.2314 26.8415C91.9926 26.8415 92.6482 27.0178 93.1978 27.3704C93.7477 27.7231 94.1706 28.2062 94.4665 28.8198C94.7627 29.4334 94.9108 30.1422 94.9108 30.9462V38.3941H91.5697V31.6761C91.5697 30.992 91.4077 30.4807 91.0833 30.1422C90.7593 29.7966 90.3187 29.6238 89.762 29.6238C89.3955 29.6238 89.0643 29.7049 88.7681 29.8671C88.4723 30.0223 88.2359 30.255 88.0599 30.5653C87.8908 30.8686 87.8062 31.2494 87.8062 31.7079V38.3941H84.4652Z" fill="var(--fill-0, #AAAAAA)"/>
<path id="Vector_21" d="M76.6043 38.5633C75.8216 38.5633 75.1101 38.3974 74.4684 38.0661C73.8271 37.7275 73.3162 37.2337 72.9355 36.5849C72.5618 35.929 72.3754 35.1214 72.3754 34.1623V27.0108H75.716V33.7179C75.716 34.3738 75.8852 34.8746 76.2235 35.2202C76.5689 35.5587 76.9881 35.728 77.4816 35.728C77.8481 35.728 78.1688 35.6469 78.4436 35.4846C78.7255 35.3224 78.9443 35.0932 79.0991 34.797C79.2612 34.4937 79.3424 34.134 79.3424 33.7179V27.0108H82.683V34.4056C82.683 34.8146 82.7432 35.1109 82.8631 35.2942C82.9826 35.4776 83.2258 35.6363 83.5923 35.7703L82.4082 38.5633C81.5696 38.3444 80.9565 38.0589 80.5686 37.7061C80.3735 37.5286 80.2254 37.3241 80.125 37.0927H80.04C79.7449 37.3897 79.4172 37.6542 79.057 37.8863C78.3451 38.3376 77.5275 38.5633 76.6043 38.5633Z" fill="var(--fill-0, #AAAAAA)"/>
<path id="Vector_22" fill-rule="evenodd" clip-rule="evenodd" d="M65.582 38.5633C64.4893 38.5633 63.492 38.3128 62.5898 37.8122C61.6948 37.3113 60.9795 36.6201 60.4438 35.7385C59.9153 34.857 59.6506 33.8414 59.6506 32.6917C59.6506 31.5422 59.9153 30.5266 60.4438 29.645C60.9795 28.7634 61.6948 28.0757 62.5898 27.582C63.492 27.0883 64.4893 26.8415 65.582 26.8415C66.6954 26.8415 67.6999 27.0883 68.5949 27.582C69.4899 28.0757 70.1985 28.7634 70.7199 29.645C71.2488 30.5266 71.513 31.5422 71.513 32.6917C71.513 33.8414 71.2488 34.857 70.7199 35.7385C70.1985 36.6201 69.4865 37.3113 68.5844 37.8122C67.6893 38.3128 66.6883 38.5633 65.582 38.5633ZM65.582 35.7068C66.1034 35.7068 66.5722 35.5798 66.9879 35.3259C67.4037 35.072 67.7314 34.7194 67.9713 34.268C68.2107 33.8166 68.3306 33.2912 68.3306 32.6917C68.3306 32.1134 68.2145 31.5986 67.9818 31.1472C67.7491 30.6958 67.4285 30.3432 67.0199 30.0893C66.6109 29.8283 66.1387 29.6978 65.6031 29.6978C65.0746 29.6978 64.5987 29.8248 64.1758 30.0787C63.76 30.3256 63.4322 30.6747 63.1924 31.126C62.953 31.5774 62.833 32.0993 62.833 32.6917C62.833 33.2912 62.953 33.8166 63.1924 34.268C63.4394 34.7194 63.7705 35.072 64.1863 35.3259C64.602 35.5798 65.0674 35.7068 65.582 35.7068Z" fill="var(--fill-0, #AAAAAA)"/>
<path id="Vector_23" d="M50.965 38.3941V22.8003H60.0465V25.8894H54.4327V29.4757H59.1056V32.5648H54.4327V38.3941H50.965Z" fill="var(--fill-0, #AAAAAA)"/>
<path id="Vector_24" d="M43.1778 19.0035H37.8193C37.817 19.2768 37.6565 19.524 37.4105 19.6468L33.9579 21.3695C33.7117 21.4923 33.5546 21.7394 33.5353 22.0127H38.8936C38.9109 21.7394 39.0684 21.4923 39.3146 21.3695L42.7673 19.6468C43.0131 19.524 43.1733 19.2769 43.1778 19.0035Z" fill="var(--fill-0, #FF6670)"/>
<path id="Vector_25" d="M0.335982 22.0127H5.69453C5.69686 21.7394 5.85726 21.4923 6.1034 21.3695L9.55603 19.6468C9.80221 19.524 9.9593 19.2768 9.97862 19.0035H4.62008C4.60313 19.2769 4.44555 19.524 4.19941 19.6468L0.746778 21.3695C0.500625 21.4923 0.340698 21.7394 0.335982 22.0127Z" fill="var(--fill-0, #FF6670)"/>
<path id="Vector_26" d="M13.1947 19.0035C13.1728 19.2768 13.0162 19.524 12.77 19.6468L9.31737 21.3695C9.07119 21.4923 8.91031 21.7395 8.91053 22.0127H14.2761C14.2647 21.74 14.4277 21.4923 14.674 21.3695L18.1266 19.6468C18.3729 19.5239 18.5275 19.2762 18.5602 19.0035H13.1947Z" fill="var(--fill-0, #FF6670)"/>
<path id="Vector_27" d="M29.2378 19.0035C29.2492 19.2762 29.0862 19.5239 28.8399 19.6468L25.3873 21.3695C25.141 21.4923 24.9864 21.74 24.9537 22.0127H30.3193C30.3411 21.7395 30.4977 21.4923 30.7439 21.3695L34.1965 19.6468C34.4427 19.524 34.6036 19.2768 34.6034 19.0035H29.2378Z" fill="var(--fill-0, #FF6670)"/>
</g>
<defs>
<clipPath id="clip0_131_594">
<rect width="156" height="41" fill="white"/>
</clipPath>
</defs>
</svg>
