<svg preserveAspectRatio="none" width="100%" height="100%" overflow="visible" style="display: block;" viewBox="0 0 123.453 18.0238" fill="none" xmlns="http://www.w3.org/2000/svg">
<g id="logo-modern-web" clip-path="url(#clip0_201_712)">
<path id="Vector" d="M0 17.8438V4.875C0 3.83333 0.458333 2.82292 1.375 1.84375C2.54167 0.635417 3.96875 0.0208333 5.65625 0V4.15625C4.82292 4.28125 4.35417 4.69792 4.25 5.40625V17.8438H0ZM7.09375 4.15625V0C8.51042 0.0208333 9.71875 0.40625 10.7188 1.15625C11.6771 0.385417 12.875 0 14.3125 0V4.15625C13.3542 4.17708 12.8646 4.59375 12.8438 5.40625V17.8438H8.59375V5.40625C8.55208 4.59375 8.05208 4.17708 7.09375 4.15625ZM15.7188 4.15625V0C17.7396 0 19.3333 0.802083 20.5 2.40625C21.125 3.28125 21.4375 4.10417 21.4375 4.875V17.8438H17.1875V5.40625C17.1458 4.59375 16.6562 4.17708 15.7188 4.15625ZM28.925 18.0238C27.8583 18.0238 26.8983 17.7904 26.045 17.3237C25.1917 16.8437 24.5183 16.1704 24.025 15.3037C23.545 14.4371 23.305 13.4371 23.305 12.3037C23.305 11.1704 23.5517 10.1704 24.045 9.30375C24.5517 8.43708 25.2383 7.77042 26.105 7.30375C26.9717 6.82375 27.9383 6.58375 29.005 6.58375C30.0717 6.58375 31.0383 6.82375 31.905 7.30375C32.7717 7.77042 33.4517 8.43708 33.945 9.30375C34.4517 10.1704 34.705 11.1704 34.705 12.3037C34.705 13.4371 34.445 14.4371 33.925 15.3037C33.4183 16.1704 32.725 16.8437 31.845 17.3237C30.9783 17.7904 30.005 18.0238 28.925 18.0238ZM28.925 15.5837C29.4317 15.5837 29.905 15.4637 30.345 15.2237C30.7983 14.9704 31.1583 14.5971 31.425 14.1037C31.6917 13.6104 31.825 13.0104 31.825 12.3037C31.825 11.2504 31.545 10.4437 30.985 9.88375C30.4383 9.31042 29.765 9.02375 28.965 9.02375C28.165 9.02375 27.4917 9.31042 26.945 9.88375C26.4117 10.4437 26.145 11.2504 26.145 12.3037C26.145 13.3571 26.405 14.1704 26.925 14.7437C27.4583 15.3037 28.125 15.5837 28.925 15.5837ZM36.0389 12.2637C36.0389 11.1437 36.2589 10.1504 36.6989 9.28375C37.1522 8.41708 37.7656 7.75042 38.5389 7.28375C39.3122 6.81708 40.1722 6.58375 41.1189 6.58375C41.8389 6.58375 42.5256 6.74375 43.1789 7.06375C43.8322 7.37042 44.3522 7.78375 44.7389 8.30375V3.04375H47.5789V17.8438H44.7389V16.2037C44.3922 16.7504 43.9056 17.1904 43.2789 17.5237C42.6522 17.8571 41.9256 18.0238 41.0989 18.0238C40.1656 18.0238 39.3122 17.7838 38.5389 17.3037C37.7656 16.8237 37.1522 16.1504 36.6989 15.2837C36.2589 14.4037 36.0389 13.3971 36.0389 12.2637ZM44.7589 12.3037C44.7589 11.6237 44.6256 11.0437 44.3589 10.5637C44.0922 10.0704 43.7322 9.69708 43.2789 9.44375C42.8256 9.17708 42.3389 9.04375 41.8189 9.04375C41.2989 9.04375 40.8189 9.17042 40.3789 9.42375C39.9389 9.67708 39.5789 10.0504 39.2989 10.5437C39.0322 11.0237 38.8989 11.5971 38.8989 12.2637C38.8989 12.9304 39.0322 13.5171 39.2989 14.0237C39.5789 14.5171 39.9389 14.8971 40.3789 15.1637C40.8322 15.4304 41.3122 15.5637 41.8189 15.5637C42.3389 15.5637 42.8256 15.4371 43.2789 15.1837C43.7322 14.9171 44.0922 14.5437 44.3589 14.0637C44.6256 13.5704 44.7589 12.9837 44.7589 12.3037ZM60.6136 12.0637C60.6136 12.4637 60.5869 12.8237 60.5336 13.1437H52.4336C52.5003 13.9437 52.7803 14.5704 53.2736 15.0237C53.7669 15.4771 54.3736 15.7037 55.0936 15.7037C56.1336 15.7037 56.8736 15.2571 57.3136 14.3637H60.3336C60.0136 15.4304 59.4003 16.3104 58.4936 17.0037C57.5869 17.6837 56.4736 18.0238 55.1536 18.0238C54.0869 18.0238 53.1269 17.7904 52.2736 17.3237C51.4336 16.8437 50.7736 16.1704 50.2936 15.3037C49.8269 14.4371 49.5936 13.4371 49.5936 12.3037C49.5936 11.1571 49.8269 10.1504 50.2936 9.28375C50.7603 8.41708 51.4136 7.75042 52.2536 7.28375C53.0936 6.81708 54.0603 6.58375 55.1536 6.58375C56.2069 6.58375 57.1469 6.81042 57.9736 7.26375C58.8136 7.71708 59.4603 8.36375 59.9136 9.20375C60.3803 10.0304 60.6136 10.9837 60.6136 12.0637ZM57.7136 11.2637C57.7003 10.5437 57.4403 9.97042 56.9336 9.54375C56.4269 9.10375 55.8069 8.88375 55.0736 8.88375C54.3803 8.88375 53.7936 9.09708 53.3136 9.52375C52.8469 9.93708 52.5603 10.5171 52.4536 11.2637H57.7136ZM65.4573 8.48375C65.8173 7.89708 66.284 7.43708 66.8573 7.10375C67.444 6.77042 68.1107 6.60375 68.8573 6.60375V9.54375H68.1173C67.2373 9.54375 66.5707 9.75042 66.1173 10.1637C65.6773 10.5771 65.4573 11.2971 65.4573 12.3237V17.8438H62.6573V6.76375H65.4573V8.48375ZM76.8833 6.60375C78.2033 6.60375 79.2699 7.02375 80.0833 7.86375C80.8966 8.69042 81.3033 9.85042 81.3033 11.3437V17.8438H78.5033V11.7237C78.5033 10.8437 78.2833 10.1704 77.8433 9.70375C77.4033 9.22375 76.8033 8.98375 76.0433 8.98375C75.2699 8.98375 74.6566 9.22375 74.2033 9.70375C73.7633 10.1704 73.5433 10.8437 73.5433 11.7237V17.8438H70.7433V6.76375H73.5433V8.14375C73.9166 7.66375 74.3899 7.29042 74.9633 7.02375C75.5499 6.74375 76.1899 6.60375 76.8833 6.60375Z" fill="var(--fill-0, black)"/>
<path id="Vector_2" d="M99.0033 6.94375L93.6633 17.8638H92.2633L90.8633 8.72375L86.2033 17.8638H84.8033L83.3033 6.94375H84.7433L85.8033 16.3837L90.5033 6.94375H91.9233L93.2633 16.4037L97.6233 6.94375H99.0033ZM105.672 6.78375C106.592 6.78375 107.378 6.96375 108.032 7.32375C108.685 7.67042 109.178 8.15042 109.512 8.76375C109.858 9.37708 110.032 10.0771 110.032 10.8637C110.032 11.2237 110.005 11.5437 109.952 11.8237C109.872 12.2237 109.792 12.5837 109.712 12.9037H100.652C100.612 13.1571 100.592 13.3971 100.592 13.6237C100.592 14.6504 100.898 15.4437 101.512 16.0037C102.138 16.5637 102.932 16.8437 103.892 16.8437C104.812 16.8437 105.618 16.6237 106.312 16.1837C107.005 15.7437 107.512 15.1504 107.832 14.4037H109.332C108.878 15.4704 108.152 16.3437 107.152 17.0237C106.165 17.6904 105.012 18.0238 103.692 18.0238C102.332 18.0238 101.238 17.6371 100.412 16.8637C99.5984 16.0771 99.1919 15.0104 99.1919 13.6637C99.1919 13.2637 99.2319 12.8437 99.3119 12.4037C99.5124 11.2704 99.9124 10.2771 100.512 9.42375C101.125 8.57042 101.878 7.91708 102.772 7.46375C103.665 7.01042 104.632 6.78375 105.672 6.78375ZM108.512 11.8637C108.578 11.4904 108.612 11.1771 108.612 10.9237C108.612 9.97708 108.312 9.25042 107.712 8.74375C107.112 8.23708 106.345 7.98375 105.412 7.98375C104.732 7.98375 104.078 8.13042 103.452 8.42375C102.825 8.71708 102.278 9.15708 101.812 9.74375C101.345 10.3304 101.025 11.0371 100.852 11.8637H108.512ZM114.333 9.36375C114.813 8.60375 115.473 7.98375 116.313 7.50375C117.153 7.02375 118.08 6.78375 119.093 6.78375C120.413 6.78375 121.466 7.17708 122.253 7.96375C123.053 8.73708 123.453 9.79042 123.453 11.1237C123.453 11.5237 123.413 11.9437 123.333 12.3837C123.133 13.5037 122.733 14.4904 122.133 15.3437C121.533 16.1971 120.793 16.8571 119.913 17.3237C119.046 17.7904 118.113 18.0238 117.113 18.0238C116.086 18.0238 115.24 17.7904 114.573 17.3237C113.906 16.8437 113.46 16.2237 113.233 15.4637L112.813 17.8638H111.433L114.053 3.06375H115.433L114.333 9.36375ZM121.913 12.3837C121.98 11.9837 122.013 11.6437 122.013 11.3637C122.013 10.3104 121.7 9.49042 121.073 8.90375C120.46 8.30375 119.646 8.00375 118.633 8.00375C117.886 8.00375 117.173 8.18375 116.493 8.54375C115.813 8.90375 115.233 9.41708 114.753 10.0837C114.273 10.7504 113.953 11.5237 113.793 12.4037C113.726 12.7771 113.693 13.1104 113.693 13.4037C113.693 14.4437 114.006 15.2704 114.633 15.8837C115.26 16.4971 116.073 16.8037 117.073 16.8037C117.846 16.8037 118.566 16.6304 119.233 16.2837C119.913 15.9237 120.486 15.4104 120.953 14.7437C121.433 14.0637 121.753 13.2771 121.913 12.3837Z" fill="var(--fill-0, #00419C)"/>
</g>
<defs>
<clipPath id="clip0_201_712">
<rect width="123.453" height="18.0238" fill="white"/>
</clipPath>
</defs>
</svg>
