<svg width="54" height="45" viewBox="0 0 54 45" fill="none" xmlns="http://www.w3.org/2000/svg">
<path d="M0 44.6094V12.1875C0 9.58333 1.14583 7.05729 3.4375 4.60938C6.35417 1.58854 9.92188 0.0520833 14.1406 0V10.3906C12.0573 10.7031 10.8854 11.7448 10.625 13.5156V44.6094H0ZM17.7344 10.3906V0C21.276 0.0520833 24.2969 1.01562 26.7969 2.89062C29.1927 0.963542 32.1875 0 35.7812 0V10.3906C33.3854 10.4427 32.1615 11.4844 32.1094 13.5156V44.6094H21.4844V13.5156C21.3802 11.4844 20.1302 10.4427 17.7344 10.3906ZM39.2969 10.3906V0C44.349 0 48.3333 2.00521 51.25 6.01562C52.8125 8.20312 53.5938 10.2604 53.5938 12.1875V44.6094H42.9688V13.5156C42.8646 11.4844 41.6406 10.4427 39.2969 10.3906Z" fill="#00419C"/>
</svg>
