<svg preserveAspectRatio="none" width="100%" height="100%" overflow="visible" style="display: block;" viewBox="0 0 156 28" fill="none" xmlns="http://www.w3.org/2000/svg">
<g id="Logo" clip-path="url(#clip0_131_623)">
<path id="Vector" d="M9.32894 14.2475L12.5556 15.7131L12.1424 19.3569L6.37446 25.7797C3.0264 23.6616 0.639798 20.203 0 16.1756L9.32894 14.2475Z" fill="var(--fill-0, #15E3FF)"/>
<path id="Vector_2" d="M17.9386 18.158L22.2541 25.4652C19.9395 27.0623 17.1195 28 14.0765 28C13.0886 28 12.1243 27.9011 11.193 27.713L12.1424 19.3569L14.586 16.6359L17.9386 18.158Z" fill="var(--fill-0, #348DFC)"/>
<path id="Vector_3" d="M27.8536 10.4167C28.1606 11.56 28.3243 12.7606 28.3243 13.9987C28.3243 16.8801 27.4383 19.5582 25.9198 21.7845L17.9393 18.1583L16.0666 14.9886L18.419 12.3684L27.8536 10.4167Z" fill="var(--fill-0, #FD4873)"/>
<g id="Vector_4">
</g>
<path id="Vector_5" d="M14.3406 0C18.6278 0.0765905 22.4522 2.0139 25.0133 5.02489L18.418 12.3686L14.9441 13.0871L13.1916 10.1202L14.3406 0Z" fill="var(--fill-0, #FFC700)"/>
<path id="Vector_6" d="M13.1916 10.1202L12.8038 13.5288L9.33087 14.2471L0.366642 10.1743C1.49563 6.25831 4.31524 3.04052 8.00137 1.33049L13.1916 10.1202Z" fill="var(--fill-0, #00E7B9)"/>
<path id="Vector_7" d="M137.417 20.5366V13.8337C137.417 9.99999 139.679 8.31222 142.628 8.31222C144.349 8.31222 145.799 8.96322 146.709 10.217C147.618 8.96322 149.044 8.31222 150.789 8.31222C153.738 8.31222 156 9.99999 156 13.8337V20.5366H152.313V13.8337C152.313 12.2424 151.527 11.6878 150.42 11.6878C149.339 11.6878 148.553 12.2424 148.553 13.8337V20.5366H144.866V13.8337C144.866 12.2424 144.078 11.6878 142.997 11.6878C141.891 11.6878 141.105 12.2424 141.105 13.8337V20.5366H137.417Z" fill="var(--fill-0, #002469)"/>
<path id="Vector_8" d="M129.856 20.7388C126.267 20.7388 123.858 18.7134 123.858 14.6868V8.51438H127.545V14.6868C127.545 16.5675 128.479 17.3631 129.856 17.3631C131.232 17.3631 132.166 16.5675 132.166 14.6868V8.51438H135.853V14.6868C135.853 18.6893 133.445 20.7388 129.856 20.7388Z" fill="var(--fill-0, #002469)"/>
<path id="Vector_9" d="M117.586 20.7389C114.464 20.7389 112.449 19.0994 112.4 16.8088H116.038C116.062 17.4357 116.529 17.7491 117.537 17.7491C118.668 17.7491 119.037 17.3634 119.037 16.857C119.037 16.0614 118.151 15.989 117.021 15.8202C115.35 15.5791 112.596 15.1692 112.596 12.3C112.596 9.88883 114.538 8.20106 117.561 8.20106C120.585 8.20106 122.453 9.91298 122.527 12.0589H118.938C118.84 11.5043 118.348 11.1908 117.61 11.1908C116.702 11.1908 116.333 11.649 116.333 12.1312C116.333 12.8545 117.217 12.951 118.348 13.1198C120.093 13.3609 122.773 13.819 122.773 16.64C122.773 19.0994 120.708 20.7389 117.586 20.7389Z" fill="var(--fill-0, #002469)"/>
<path id="Vector_10" d="M98.7801 25.513V14.5905C98.7801 10.5881 101.532 8.20106 105.244 8.20106C109.103 8.20106 111.807 10.781 111.807 14.6147C111.807 18.7618 108.661 20.7389 105.908 20.7389C104.458 20.7389 103.229 20.1844 102.467 19.1234V25.513H98.7801ZM105.269 17.3634C106.94 17.3634 108.071 16.1819 108.071 14.47C108.071 12.7581 106.94 11.5767 105.269 11.5767C103.598 11.5767 102.467 12.7581 102.467 14.47C102.467 16.1819 103.598 17.3634 105.269 17.3634Z" fill="var(--fill-0, #002469)"/>
<path id="Vector_11" d="M94.9705 7.42938C93.6185 7.42938 92.6106 6.4408 92.6106 5.11468C92.6106 3.78856 93.6185 2.8 94.9705 2.8C96.3218 2.8 97.3298 3.78856 97.3298 5.11468C97.3298 6.4408 96.3218 7.42938 94.9705 7.42938ZM93.127 20.4253V8.51438H96.814V20.4253H93.127Z" fill="var(--fill-0, #002469)"/>
<path id="Vector_12" d="M85.1247 20.7389C81.2902 20.7389 78.5862 18.0867 78.5862 14.47C78.5862 10.8533 81.2902 8.20106 85.1247 8.20106C88.9592 8.20106 91.6632 10.8533 91.6632 14.47C91.6632 18.0867 88.9592 20.7389 85.1247 20.7389ZM85.1247 17.3634C86.7965 17.3634 87.927 16.1819 87.927 14.47C87.927 12.7581 86.7965 11.5767 85.1247 11.5767C83.4536 11.5767 82.3224 12.7581 82.3224 14.47C82.3224 16.1819 83.4536 17.3634 85.1247 17.3634Z" fill="var(--fill-0, #002469)"/>
<path id="Vector_13" d="M71.4694 20.7389C67.6348 20.7389 64.931 18.0867 64.931 14.47C64.931 10.8533 67.6348 8.20106 71.4694 8.20106C75.3038 8.20106 78.0078 10.8533 78.0078 14.47C78.0078 18.0867 75.3038 20.7389 71.4694 20.7389ZM71.4694 17.3634C73.1405 17.3634 74.2717 16.1819 74.2717 14.47C74.2717 12.7581 73.1405 11.5767 71.4694 11.5767C69.7978 11.5767 68.6671 12.7581 68.6671 14.47C68.6671 16.1819 69.7978 17.3634 71.4694 17.3634Z" fill="var(--fill-0, #002469)"/>
<path id="Vector_14" d="M57.814 20.7389C53.9795 20.7389 51.2757 18.0867 51.2757 14.47C51.2757 10.8533 53.9795 8.20106 57.814 8.20106C61.6484 8.20106 64.3522 10.8533 64.3522 14.47C64.3522 18.0867 61.6484 20.7389 57.814 20.7389ZM57.814 17.3634C59.4854 17.3634 60.6161 16.1819 60.6161 14.47C60.6161 12.7581 59.4854 11.5767 57.814 11.5767C56.1425 11.5767 55.0119 12.7581 55.0119 14.47C55.0119 16.1819 56.1425 17.3634 57.814 17.3634Z" fill="var(--fill-0, #002469)"/>
<path id="Vector_15" d="M39.1781 20.4254V4.65661H43.1601V16.8087H50.7553V20.4254H39.1781Z" fill="var(--fill-0, #002469)"/>
<path id="Vector_16" d="M77.5185 21.5416C77.1466 24.8893 74.8536 26.6 71.5755 26.6C68.2949 26.6 66.0015 24.9077 65.6315 21.5416H69.3718C69.6535 22.713 70.4718 23.2243 71.5755 23.2243C72.6782 23.2243 73.4967 22.7131 73.7787 21.5416H77.5185Z" fill="var(--fill-0, #002469)"/>
</g>
<defs>
<clipPath id="clip0_131_623">
<rect width="156" height="28" fill="white"/>
</clipPath>
</defs>
</svg>
