<svg preserveAspectRatio="none" width="100%" height="100%" overflow="visible" style="display: block;" viewBox="0 0 149.625 21" fill="none" xmlns="http://www.w3.org/2000/svg">
<g id="Logo" clip-path="url(#clip0_131_580)">
<path id="Vector" d="M18.4986 0C24.0076 1.64203e-07 28.4736 4.46596 28.4736 9.975V21C26.154 21 24.2736 19.1196 24.2736 16.8V9.975C24.2736 6.78557 21.688 4.2 18.4986 4.2H15.768C14.3756 4.20002 13.0401 4.75303 12.0555 5.73757L4.9388 12.8548C4.545 13.2486 4.32359 13.7827 4.32356 14.3396V14.7C4.32356 15.8598 5.26376 16.8 6.42359 16.8H15.8736C15.8736 19.0471 14.109 20.8818 11.8899 20.9944L11.6736 21H6.42359C2.94417 21 0.12356 18.1794 0.12356 14.7V14.3396C0.123592 12.6688 0.7873 11.0662 1.96875 9.88475L9.08597 2.76804C10.8582 0.995846 13.2617 2.29738e-05 15.768 0H18.4986Z" fill="var(--fill-0, #FF500B)"/>
<path id="Vector_2" d="M19.5486 6.3C20.9983 6.3 22.1736 7.47527 22.1736 8.925V21C19.854 21 17.9736 19.1196 17.9736 16.8V10.5H16.2181L12.787 13.9311C12.2947 14.4234 11.627 14.7 10.9308 14.7H6.67427C6.4544 14.7 6.34431 14.4342 6.49976 14.2787L13.71 7.06902C14.2022 6.57678 14.8698 6.3 15.5659 6.3H19.5486Z" fill="var(--fill-0, #FF500B)"/>
<path id="Vector_3" d="M144.28 15.7749V9.00858C144.28 8.8136 144.105 8.63809 143.91 8.63809H143.656C143.5 8.63809 143.364 8.73558 143.305 8.87208L140.946 14.4489C140.614 15.2679 139.815 15.7749 138.937 15.7749C138.06 15.7749 137.28 15.2679 136.948 14.4489L134.57 8.87208C134.53 8.73558 134.394 8.63809 134.238 8.63809H133.984C133.789 8.63809 133.614 8.8136 133.614 9.00858V15.7749H131.411V9.00858C131.411 7.5851 132.561 6.41513 133.984 6.41513H134.238C135.271 6.41513 136.207 7.0391 136.617 8.01407L138.937 13.513L141.258 8.01407C141.667 7.0391 142.603 6.41513 143.656 6.41513H143.91C145.333 6.41513 146.483 7.5851 146.483 9.00858V15.7749H144.28Z" fill="var(--fill-0, #A62F00)"/>
<path id="Vector_4" d="M121.354 15.7749C119.111 15.7749 117.298 13.9614 117.298 11.719V6.41513H119.501V11.719C119.501 12.733 120.339 13.5715 121.354 13.5715H126.034C127.047 13.5715 127.886 12.733 127.886 11.719V6.41513H130.089V11.719C130.089 13.9614 128.276 15.7749 126.034 15.7749H121.354Z" fill="var(--fill-0, #A62F00)"/>
<path id="Vector_5" d="M113.238 13.5715C113.608 13.5715 113.921 13.2595 113.921 12.889C113.921 12.5185 113.628 12.226 113.277 12.2065H108.071C106.472 12.2065 105.185 10.9195 105.185 9.32054C105.185 7.7216 106.472 6.41513 108.071 6.41513H116.144V8.63809H108.071C107.7 8.63809 107.388 8.9501 107.388 9.32054C107.388 9.69103 107.7 10.003 108.071 10.003H113.316C114.876 10.042 116.144 11.3095 116.144 12.889C116.144 14.488 114.837 15.7749 113.238 15.7749H105.185V13.5715H113.238Z" fill="var(--fill-0, #A62F00)"/>
<path id="Vector_6" d="M92.8111 15.7749V9.00858C92.8111 7.5851 93.9619 6.41513 95.3852 6.41513H101.059C102.893 6.41513 104.374 7.91658 104.374 9.74957C104.374 11.5825 102.893 13.084 101.059 13.084H95.0145V15.7749H92.8111ZM95.0145 9.00858V10.861H101.059C101.664 10.861 102.171 10.3541 102.171 9.74957C102.171 9.14508 101.664 8.63809 101.059 8.63809H95.3852C95.1904 8.63809 95.0145 8.8136 95.0145 9.00858Z" fill="var(--fill-0, #A62F00)"/>
<path id="Vector_7" d="M89.0999 6.41513H91.3033V15.7749H89.0999V6.41513Z" fill="var(--fill-0, #A62F00)"/>
<path id="Vector_8" d="M83.2624 13.5715C84.6274 13.5715 85.7388 12.46 85.7388 11.095C85.7388 9.74957 84.6274 8.63809 83.2624 8.63809H79.8305C78.4655 8.63809 77.354 9.74957 77.354 11.095C77.354 12.46 78.4655 13.5715 79.8305 13.5715H83.2624ZM83.2624 6.41513C85.8559 6.41513 87.9422 8.52106 87.9422 11.095C87.9422 13.6885 85.8559 15.7749 83.2624 15.7749H79.8305C77.237 15.7749 75.1506 13.6885 75.1506 11.095C75.1506 8.52106 77.237 6.41513 79.8305 6.41513H83.2624Z" fill="var(--fill-0, #A62F00)"/>
<path id="Vector_9" d="M66.5768 15.7749C63.9833 15.7749 61.897 13.6885 61.897 11.095C61.897 8.52106 63.9833 6.41513 66.5768 6.41513H73.343V8.63809H66.5768C65.2118 8.63809 64.1004 9.74957 64.1004 11.095C64.1004 12.46 65.2118 13.5715 66.5768 13.5715H71.5491C71.9197 13.5715 72.2316 13.2595 72.2316 12.889C72.2316 12.5185 71.9197 12.2065 71.5491 12.2065H66.2062V10.003H71.5491C73.1482 10.003 74.4544 11.29 74.4544 12.889C74.4544 14.488 73.1482 15.7749 71.5491 15.7749H66.5768Z" fill="var(--fill-0, #A62F00)"/>
<path id="Vector_10" d="M56.4884 13.5715C57.8534 13.5715 58.9649 12.46 58.9649 11.095C58.9649 9.74957 57.8534 8.63809 56.4884 8.63809H53.0565C51.6917 8.63809 50.5802 9.74957 50.5802 11.095C50.5802 12.46 51.6917 13.5715 53.0565 13.5715H56.4884ZM56.4884 6.41513C59.0819 6.41513 61.1683 8.52106 61.1683 11.095C61.1683 13.6885 59.0819 15.7749 56.4884 15.7749H53.0565C50.4632 15.7749 48.3768 13.6885 48.3768 11.095C48.3768 8.52106 50.4632 6.41513 53.0565 6.41513H56.4884Z" fill="var(--fill-0, #A62F00)"/>
<path id="Vector_11" d="M39.3534 13.201C39.3534 13.396 39.5288 13.5715 39.7239 13.5715H47.9721V15.7749H39.7239C38.3004 15.7749 37.1499 14.6245 37.1499 13.201V6.35659H39.3534V13.201Z" fill="var(--fill-0, #A62F00)"/>
<path id="Vector_12" d="M149.167 6.35659C149.167 6.9815 148.66 7.48807 148.035 7.48807C147.41 7.48807 146.904 6.9815 146.904 6.35659C146.904 5.73174 147.41 5.22514 148.035 5.22514C148.66 5.22514 149.167 5.73174 149.167 6.35659Z" fill="var(--fill-0, #A62F00)"/>
</g>
<defs>
<clipPath id="clip0_131_580">
<rect width="149.625" height="21" fill="white"/>
</clipPath>
</defs>
</svg>
