<svg width="124" height="19" viewBox="0 0 124 19" fill="none" xmlns="http://www.w3.org/2000/svg">
<path d="M0 17.8438V4.875C0 3.83333 0.458333 2.82292 1.375 1.84375C2.54167 0.635417 3.96875 0.0208333 5.65625 0V4.15625C4.82292 4.28125 4.35417 4.69792 4.25 5.40625V17.8438H0ZM7.09375 4.15625V0C8.51042 0.0208333 9.71875 0.40625 10.7188 1.15625C11.6771 0.385417 12.875 0 14.3125 0V4.15625C13.3542 4.17708 12.8646 4.59375 12.8438 5.40625V17.8438H8.59375V5.40625C8.55208 4.59375 8.05208 4.17708 7.09375 4.15625ZM15.7188 4.15625V0C17.7396 0 19.3333 0.802083 20.5 2.40625C21.125 3.28125 21.4375 4.10417 21.4375 4.875V17.8438H17.1875V5.40625C17.1458 4.59375 16.6562 4.17708 15.7188 4.15625ZM28.925 18.0238C27.8583 18.0238 26.8983 17.7904 26.045 17.3237C25.1917 16.8437 24.5183 16.1704 24.025 15.3037C23.545 14.4371 23.305 13.4371 23.305 12.3037C23.305 11.1704 23.5517 10.1704 24.045 9.30375C24.5517 8.43708 25.2383 7.77042 26.105 7.30375C26.9717 6.82375 27.9383 6.58375 29.005 6.58375C30.0717 6.58375 31.0383 6.82375 31.905 7.30375C32.7717 7.77042 33.4517 8.43708 33.945 9.30375C34.4517 10.1704 34.705 11.1704 34.705 12.3037C34.705 13.4371 34.445 14.4371 33.925 15.3037C33.4183 16.1704 32.725 16.8437 31.845 17.3237C30.9783 17.7904 30.005 18.0238 28.925 18.0238ZM28.925 15.5837C29.4317 15.5837 29.905 15.4637 30.345 15.2237C30.7983 14.9704 31.1583 14.5971 31.425 14.1037C31.6917 13.6104 31.825 13.0104 31.825 12.3037C31.825 11.2504 31.545 10.4437 30.985 9.88375C30.4383 9.31042 29.765 9.02375 28.965 9.02375C28.165 9.02375 27.4917 9.31042 26.945 9.88375C26.4117 10.4437 26.145 11.2504 26.145 12.3037C26.145 13.3571 26.405 14.1704 26.925 14.7437C27.4583 15.3037 28.125 15.5837 28.925 15.5837ZM36.0389 12.2637C36.0389 11.1437 36.2589 10.1504 36.6989 9.28375C37.1522 8.41708 37.7656 7.75042 38.5389 7.28375C39.3122 6.81708 40.1722 6.58375 41.1189 6.58375C41.8389 6.58375 42.5256 6.74375 43.1789 7.06375C43.8322 7.37042 44.3522 7.78375 44.7389 8.30375V3.04375H47.5789V17.8438H44.7389V16.2037C44.3922 16.7504 43.9056 17.1904 43.2789 17.5237C42.6522 17.8571 41.9256 18.0238 41.0989 18.0238C40.1656 18.0238 39.3122 17.7838 38.5389 17.3037C37.7656 16.8237 37.1522 16.1504 36.6989 15.2837C36.2589 14.4037 36.0389 13.3971 36.0389 12.2637ZM44.7589 12.3037C44.7589 11.6237 44.6256 11.0437 44.3589 10.5637C44.0922 10.0704 43.7322 9.69708 43.2789 9.44375C42.8256 9.17708 42.3389 9.04375 41.8189 9.04375C41.2989 9.04375 40.8189 9.17042 40.3789 9.42375C39.9389 9.67708 39.5789 10.0504 39.2989 10.5437C39.0322 11.0237 38.8989 11.5971 38.8989 12.2637C38.8989 12.9304 39.0322 13.5171 39.2989 14.0237C39.5789 14.5171 39.9389 14.8971 40.3789 15.1637C40.8322 15.4304 41.3122 15.5637 41.8189 15.5637C42.3389 15.5637 42.8256 15.4371 43.2789 15.1837C43.7322 14.9171 44.0922 14.5437 44.3589 14.0637C44.6256 13.5704 44.7589 12.9837 44.7589 12.3037ZM60.6136 12.0637C60.6136 12.4637 60.5869 12.8237 60.5336 13.1437H52.4336C52.5003 13.9437 52.7803 14.5704 53.2736 15.0237C53.7669 15.4771 54.3736 15.7037 55.0936 15.7037C56.1336 15.7037 56.8736 15.2571 57.3136 14.3637H60.3336C60.0136 15.4304 59.4003 16.3104 58.4936 17.0037C57.5869 17.6837 56.4736 18.0238 55.1536 18.0238C54.0869 18.0238 53.1269 17.7904 52.2736 17.3237C51.4336 16.8437 50.7736 16.1704 50.2936 15.3037C49.8269 14.4371 49.5936 13.4371 49.5936 12.3037C49.5936 11.1571 49.8269 10.1504 50.2936 9.28375C50.7603 8.41708 51.4136 7.75042 52.2536 7.28375C53.0936 6.81708 54.0603 6.58375 55.1536 6.58375C56.2069 6.58375 57.1469 6.81042 57.9736 7.26375C58.8136 7.71708 59.4603 8.36375 59.9136 9.20375C60.3803 10.0304 60.6136 10.9837 60.6136 12.0637ZM57.7136 11.2637C57.7003 10.5437 57.4403 9.97042 56.9336 9.54375C56.4269 9.10375 55.8069 8.88375 55.0736 8.88375C54.3803 8.88375 53.7936 9.09708 53.3136 9.52375C52.8469 9.93708 52.5603 10.5171 52.4536 11.2637H57.7136ZM65.4573 8.48375C65.8173 7.89708 66.284 7.43708 66.8573 7.10375C67.444 6.77042 68.1107 6.60375 68.8573 6.60375V9.54375H68.1173C67.2373 9.54375 66.5707 9.75042 66.1173 10.1637C65.6773 10.5771 65.4573 11.2971 65.4573 12.3237V17.8438H62.6573V6.76375H65.4573V8.48375ZM76.8833 6.60375C78.2033 6.60375 79.2699 7.02375 80.0833 7.86375C80.8966 8.69042 81.3033 9.85042 81.3033 11.3437V17.8438H78.5033V11.7237C78.5033 10.8437 78.2833 10.1704 77.8433 9.70375C77.4033 9.22375 76.8033 8.98375 76.0433 8.98375C75.2699 8.98375 74.6566 9.22375 74.2033 9.70375C73.7633 10.1704 73.5433 10.8437 73.5433 11.7237V17.8438H70.7433V6.76375H73.5433V8.14375C73.9166 7.66375 74.3899 7.29042 74.9633 7.02375C75.5499 6.74375 76.1899 6.60375 76.8833 6.60375Z" fill="black"/>
<path d="M99.5059 6.92375L94.1659 17.8438H92.7659L91.3659 8.70375L86.7059 17.8438H85.3059L83.8059 6.92375H85.2459L86.3059 16.3637L91.0059 6.92375H92.4259L93.7659 16.3837L98.1259 6.92375H99.5059ZM106.175 6.76375C107.095 6.76375 107.881 6.94375 108.535 7.30375C109.188 7.65042 109.681 8.13042 110.015 8.74375C110.361 9.35708 110.535 10.0571 110.535 10.8437C110.535 11.2037 110.508 11.5237 110.455 11.8037C110.375 12.2037 110.295 12.5637 110.215 12.8837H101.155C101.115 13.1371 101.095 13.3771 101.095 13.6037C101.095 14.6304 101.401 15.4237 102.015 15.9837C102.641 16.5437 103.435 16.8237 104.395 16.8237C105.315 16.8237 106.121 16.6037 106.815 16.1637C107.508 15.7237 108.015 15.1304 108.335 14.3837H109.835C109.381 15.4504 108.655 16.3237 107.655 17.0037C106.668 17.6704 105.515 18.0038 104.195 18.0038C102.835 18.0038 101.741 17.6171 100.915 16.8437C100.101 16.0571 99.6945 14.9904 99.6945 13.6437C99.6945 13.2437 99.7345 12.8237 99.8145 12.3837C100.015 11.2504 100.415 10.2571 101.015 9.40375C101.628 8.55042 102.381 7.89708 103.275 7.44375C104.168 6.99042 105.135 6.76375 106.175 6.76375ZM109.015 11.8437C109.081 11.4704 109.115 11.1571 109.115 10.9037C109.115 9.95708 108.815 9.23042 108.215 8.72375C107.615 8.21708 106.848 7.96375 105.915 7.96375C105.235 7.96375 104.581 8.11042 103.955 8.40375C103.328 8.69708 102.781 9.13708 102.315 9.72375C101.848 10.3104 101.528 11.0171 101.355 11.8437H109.015ZM114.836 9.34375C115.316 8.58375 115.976 7.96375 116.816 7.48375C117.656 7.00375 118.583 6.76375 119.596 6.76375C120.916 6.76375 121.969 7.15708 122.756 7.94375C123.556 8.71708 123.956 9.77042 123.956 11.1037C123.956 11.5037 123.916 11.9237 123.836 12.3637C123.636 13.4837 123.236 14.4704 122.636 15.3237C122.036 16.1771 121.296 16.8371 120.416 17.3037C119.549 17.7704 118.616 18.0038 117.616 18.0038C116.589 18.0038 115.743 17.7704 115.076 17.3037C114.409 16.8237 113.963 16.2037 113.736 15.4437L113.316 17.8438H111.936L114.556 3.04375H115.936L114.836 9.34375ZM122.416 12.3637C122.483 11.9637 122.516 11.6237 122.516 11.3437C122.516 10.2904 122.203 9.47042 121.576 8.88375C120.963 8.28375 120.149 7.98375 119.136 7.98375C118.389 7.98375 117.676 8.16375 116.996 8.52375C116.316 8.88375 115.736 9.39708 115.256 10.0637C114.776 10.7304 114.456 11.5037 114.296 12.3837C114.229 12.7571 114.196 13.0904 114.196 13.3837C114.196 14.4237 114.509 15.2504 115.136 15.8637C115.763 16.4771 116.576 16.7837 117.576 16.7837C118.349 16.7837 119.069 16.6104 119.736 16.2637C120.416 15.9037 120.989 15.3904 121.456 14.7237C121.936 14.0437 122.256 13.2571 122.416 12.3637Z" fill="#00419C"/>
</svg>
