<svg preserveAspectRatio="none" width="100%" height="100%" overflow="visible" style="display: block;" viewBox="0 0 156 29" fill="none" xmlns="http://www.w3.org/2000/svg">
<g id="Logo" clip-path="url(#clip0_131_566)">
<path id="Vector" d="M14.5116 0C18.3603 2.90338e-07 22.0518 1.52735 24.7732 4.24663C25.2616 4.73467 25.7113 5.25421 26.1209 5.8H14.5116C12.2024 5.8 9.9877 6.71655 8.35478 8.34809C6.72194 9.9797 5.80465 12.1926 5.80465 14.5H14.5116L26.7814 6.75652C27.6922 8.19787 28.342 9.78946 28.7002 11.457L23.2186 14.5H29.0233L29.019 14.8604C28.9267 18.5754 27.4096 22.1192 24.7732 24.7534C22.0518 27.4726 18.3603 29 14.5116 29C10.6629 29 6.9715 27.4726 4.25004 24.7534C3.7616 24.2653 3.31198 23.7458 2.90233 23.2H14.5116C16.8209 23.2 19.0356 22.2835 20.6685 20.6519C22.1993 19.1222 23.1013 17.0816 23.208 14.9312L23.2186 14.5H14.5116L2.24193 22.2421C1.33109 20.8007 0.682774 19.2089 0.324528 17.5416L5.80465 14.5H0C5.81141e-07 10.6544 1.52858 6.96591 4.25004 4.24663C6.9715 1.52736 10.6629 -4.20037e-10 14.5116 0Z" fill="var(--fill-0, #0094F7)"/>
<path id="Vector_2" d="M66.9526 22.0715C67.6346 23.3491 68.951 24.1537 70.6478 24.1537C72.3445 24.1535 73.6603 23.349 74.3423 22.0715H76.8949C76.0504 24.6245 73.7067 26.3313 70.6478 26.3315C67.5886 26.3315 65.2446 24.6246 64.4003 22.0715H66.9526Z" fill="var(--fill-0, #003253)"/>
<path id="Vector_3" fill-rule="evenodd" clip-rule="evenodd" d="M104.123 8.52586C108.012 8.52586 110.737 11.1989 110.737 15.0353C110.737 19.0944 107.715 21.3967 104.519 21.3967C102.538 21.3966 100.854 20.5054 99.9619 18.9215V26.2968H97.6081V15.0601C97.6081 11.0752 100.333 8.52586 104.123 8.52586ZM104.148 10.7037C101.646 10.7037 99.9619 12.486 99.9619 14.9609C99.9619 17.436 101.646 19.2182 104.148 19.2182C106.674 19.2182 108.359 17.436 108.359 14.9609C108.359 12.4859 106.674 10.7037 104.148 10.7037Z" fill="var(--fill-0, #003253)"/>
<path id="Vector_4" fill-rule="evenodd" clip-rule="evenodd" d="M56.6379 8.52586C60.502 8.52586 63.2268 11.2484 63.2269 14.9609C63.2269 18.6735 60.5021 21.3967 56.6379 21.3967C52.7736 21.3967 50.0488 18.6735 50.0488 14.9609C50.0489 11.2484 52.7736 8.52586 56.6379 8.52586ZM56.6379 10.7037C54.1113 10.7037 52.4269 12.4859 52.4268 14.9609C52.4268 17.436 54.1112 19.2182 56.6379 19.2182C59.1645 19.2182 60.8489 17.436 60.8489 14.9609C60.8488 12.4859 59.1644 10.7037 56.6379 10.7037Z" fill="var(--fill-0, #003253)"/>
<path id="Vector_5" fill-rule="evenodd" clip-rule="evenodd" d="M70.9086 8.53151H77.3092V10.6343H75.6586C76.6584 11.7546 77.2367 13.2525 77.2367 14.9609C77.2367 18.6735 74.5121 21.3966 70.6478 21.3967C66.7836 21.3967 64.0588 18.6735 64.0588 14.9609C64.0589 11.2484 66.7836 8.52586 70.6478 8.52586C70.7353 8.52586 70.8223 8.52868 70.9086 8.53151ZM70.6478 10.7037C68.1213 10.7037 66.4368 12.4859 66.4368 14.9609C66.4368 17.436 68.1212 19.2182 70.6478 19.2182C73.1742 19.218 74.8582 17.4359 74.8582 14.9609C74.8582 12.486 73.1742 10.7038 70.6478 10.7037Z" fill="var(--fill-0, #003253)"/>
<path id="Vector_6" fill-rule="evenodd" clip-rule="evenodd" d="M84.6572 8.52586C88.5209 8.52586 91.2462 11.2484 91.2462 14.9609C91.2462 18.6735 88.5217 21.3967 84.6572 21.3967C80.7928 21.3967 78.0682 18.6735 78.0682 14.9609C78.0682 11.2484 80.7928 8.52586 84.6572 8.52586ZM84.6572 10.7037C82.1307 10.7037 80.4459 12.4859 80.4459 14.9609C80.4459 17.436 82.1307 19.2182 84.6572 19.2182C87.1837 19.2182 88.8685 17.436 88.8685 14.9609C88.8678 12.4859 87.1837 10.7037 84.6572 10.7037Z" fill="var(--fill-0, #003253)"/>
<path id="Vector_7" d="M116.685 8.52586C119.608 8.52593 121.417 10.1844 121.466 12.2882H119.137C119.063 11.3477 118.196 10.6542 116.71 10.6541C115.15 10.6541 114.258 11.3972 114.258 12.3626C114.258 13.5255 115.546 13.6492 117.057 13.8472C119.187 14.1194 121.787 14.5156 121.788 17.3122C121.788 19.7872 119.782 21.3966 116.71 21.3967C113.638 21.3967 111.706 19.7628 111.632 17.5352H114.01C114.059 18.55 115.001 19.2677 116.71 19.2677C118.493 19.2676 119.41 18.5005 119.41 17.5352C119.41 16.372 118.122 16.223 116.586 16.025C114.456 15.7528 111.88 15.3569 111.88 12.56C111.88 10.1593 113.762 8.52586 116.685 8.52586Z" fill="var(--fill-0, #003253)"/>
<path id="Vector_8" d="M125.513 15.2328C125.513 17.8812 126.975 19.2182 129.204 19.2182C131.434 19.2182 132.895 17.8811 132.895 15.2328V8.84725H135.248V15.2328C135.248 19.292 132.821 21.396 129.204 21.396C125.588 21.396 123.16 19.3167 123.16 15.2328V8.84725H125.513V15.2328Z" fill="var(--fill-0, #003253)"/>
<path id="Vector_9" d="M40.257 18.7481H49.348V21.0746H37.7302V4.88738H40.257V18.7481Z" fill="var(--fill-0, #003253)"/>
<path id="Vector_10" d="M95.3719 21.0746H93.0188V8.84725H95.3719V21.0746Z" fill="var(--fill-0, #003253)"/>
<path id="Vector_11" d="M150.747 8.52586C153.62 8.52586 155.8 10.2585 155.8 13.9959V21.0746H153.447V13.9959C153.447 11.719 152.234 10.7038 150.524 10.7037C148.865 10.7037 147.625 11.7683 147.625 13.9959V21.0746H145.272V13.9959C145.272 11.7683 144.009 10.7037 142.35 10.7037C140.64 10.7038 139.426 11.7189 139.426 13.9959V21.0746H137.073V13.9959C137.073 10.2585 139.254 8.52586 142.127 8.52586C144.009 8.52593 145.594 9.36751 146.436 10.9515C147.279 9.36744 148.839 8.52586 150.747 8.52586Z" fill="var(--fill-0, #003253)"/>
<path id="Vector_12" d="M94.1834 3.625C95.1245 3.625 95.8181 4.31793 95.8188 5.25837C95.8188 6.19892 95.1245 6.91724 94.1834 6.91724C93.2423 6.91714 92.5486 6.19885 92.5486 5.25837C92.5486 4.318 93.2423 3.62509 94.1834 3.625Z" fill="var(--fill-0, #003253)"/>
</g>
<defs>
<clipPath id="clip0_131_566">
<rect width="156" height="29" fill="white"/>
</clipPath>
</defs>
</svg>
