<svg width="60" height="55" viewBox="0 0 60 55" fill="none" xmlns="http://www.w3.org/2000/svg">
<mask id="path-1-outside-1_239_10" maskUnits="userSpaceOnUse" x="2" y="3.5" width="56" height="47" fill="black">
<rect fill="white" x="2" y="3.5" width="56" height="47"/>
<path d="M3.20312 49.5V17.0781C3.20312 14.474 4.34896 11.9479 6.64062 9.5C9.55729 6.47917 13.125 4.94271 17.3438 4.89062V15.2812C15.2604 15.5938 14.0885 16.6354 13.8281 18.4062V49.5H3.20312ZM20.9375 15.2812V4.89062C24.4792 4.94271 27.5 5.90625 30 7.78125C32.3958 5.85417 35.3906 4.89062 38.9844 4.89062V15.2812C36.5885 15.3333 35.3646 16.375 35.3125 18.4062V49.5H24.6875V18.4062C24.5833 16.375 23.3333 15.3333 20.9375 15.2812ZM42.5 15.2812V4.89062C47.5521 4.89062 51.5365 6.89583 54.4531 10.9062C56.0156 13.0938 56.7969 15.151 56.7969 17.0781V49.5H46.1719V18.4062C46.0677 16.375 44.8438 15.3333 42.5 15.2812Z"/>
</mask>
<path d="M3.20312 49.5V17.0781C3.20312 14.474 4.34896 11.9479 6.64062 9.5C9.55729 6.47917 13.125 4.94271 17.3438 4.89062V15.2812C15.2604 15.5938 14.0885 16.6354 13.8281 18.4062V49.5H3.20312ZM20.9375 15.2812V4.89062C24.4792 4.94271 27.5 5.90625 30 7.78125C32.3958 5.85417 35.3906 4.89062 38.9844 4.89062V15.2812C36.5885 15.3333 35.3646 16.375 35.3125 18.4062V49.5H24.6875V18.4062C24.5833 16.375 23.3333 15.3333 20.9375 15.2812ZM42.5 15.2812V4.89062C47.5521 4.89062 51.5365 6.89583 54.4531 10.9062C56.0156 13.0938 56.7969 15.151 56.7969 17.0781V49.5H46.1719V18.4062C46.0677 16.375 44.8438 15.3333 42.5 15.2812Z" fill="white"/>
<path d="M3.20312 49.5H2.20312V50.5H3.20312V49.5ZM6.64062 9.5L5.92122 8.8054L5.91587 8.81095L5.9106 8.81657L6.64062 9.5ZM17.3438 4.89062H18.3438V3.8782L17.3314 3.8907L17.3438 4.89062ZM17.3438 15.2812L17.4921 16.2702L18.3438 16.1424V15.2812H17.3438ZM13.8281 18.4062L12.8388 18.2608L12.8281 18.3331V18.4062H13.8281ZM13.8281 49.5V50.5H14.8281V49.5H13.8281ZM20.9375 15.2812H19.9375V16.2597L20.9158 16.281L20.9375 15.2812ZM20.9375 4.89062L20.9522 3.89073L19.9375 3.87581V4.89062H20.9375ZM30 7.78125L29.4 8.58125L30.0215 9.04734L30.6268 8.56046L30 7.78125ZM38.9844 4.89062H39.9844V3.89062H38.9844V4.89062ZM38.9844 15.2812L39.0061 16.281L39.9844 16.2597V15.2812H38.9844ZM35.3125 18.4062L34.3128 18.3806L34.3125 18.3934V18.4062H35.3125ZM35.3125 49.5V50.5H36.3125V49.5H35.3125ZM24.6875 49.5H23.6875V50.5H24.6875V49.5ZM24.6875 18.4062H25.6875V18.3806L25.6862 18.355L24.6875 18.4062ZM42.5 15.2812H41.5V16.2593L42.4778 16.281L42.5 15.2812ZM42.5 4.89062V3.89062H41.5V4.89062H42.5ZM54.4531 10.9062L55.2669 10.325L55.2619 10.3181L54.4531 10.9062ZM56.7969 49.5V50.5H57.7969V49.5H56.7969ZM46.1719 49.5H45.1719V50.5H46.1719V49.5ZM46.1719 18.4062H47.1719V18.3806L47.1706 18.355L46.1719 18.4062ZM3.20312 49.5H4.20312V17.0781H3.20312H2.20312V49.5H3.20312ZM3.20312 17.0781H4.20312C4.20312 14.7944 5.20079 12.5012 7.37065 10.1834L6.64062 9.5L5.9106 8.81657C3.49713 11.3946 2.20312 14.1535 2.20312 17.0781H3.20312ZM6.64062 9.5L7.36003 10.1946C10.0902 7.36688 13.4029 5.93935 17.3561 5.89055L17.3438 4.89062L17.3314 3.8907C12.8471 3.94606 9.02435 5.59145 5.92122 8.8054L6.64062 9.5ZM17.3438 4.89062H16.3438V15.2812H17.3438H18.3438V4.89062H17.3438ZM17.3438 15.2812L17.1954 14.2923C16.0262 14.4677 15.0108 14.8625 14.238 15.5495C13.4517 16.2484 12.9981 17.1776 12.8388 18.2608L13.8281 18.4062L14.8175 18.5517C14.9186 17.8641 15.1812 17.387 15.5667 17.0443C15.9658 16.6896 16.5779 16.4073 17.4921 16.2702L17.3438 15.2812ZM13.8281 18.4062H12.8281V49.5H13.8281H14.8281V18.4062H13.8281ZM13.8281 49.5V48.5H3.20312V49.5V50.5H13.8281V49.5ZM20.9375 15.2812H21.9375V4.89062H20.9375H19.9375V15.2812H20.9375ZM20.9375 4.89062L20.9228 5.89052C24.2825 5.93993 27.0912 6.84963 29.4 8.58125L30 7.78125L30.6 6.98125C27.9088 4.96287 24.6758 3.94549 20.9522 3.89073L20.9375 4.89062ZM30 7.78125L30.6268 8.56046C32.8159 6.79961 35.5784 5.89062 38.9844 5.89062V4.89062V3.89062C35.2029 3.89062 31.9757 4.90873 29.3732 7.00204L30 7.78125ZM38.9844 4.89062H37.9844V15.2812H38.9844H39.9844V4.89062H38.9844ZM38.9844 15.2812L38.9626 14.2815C37.6434 14.3102 36.4765 14.6123 35.6214 15.34C34.7385 16.0914 34.3441 17.1613 34.3128 18.3806L35.3125 18.4062L36.3122 18.4319C36.333 17.62 36.5766 17.1533 36.9176 16.8631C37.2865 16.5492 37.9295 16.3044 39.0061 16.281L38.9844 15.2812ZM35.3125 18.4062H34.3125V49.5H35.3125H36.3125V18.4062H35.3125ZM35.3125 49.5V48.5H24.6875V49.5V50.5H35.3125V49.5ZM24.6875 49.5H25.6875V18.4062H24.6875H23.6875V49.5H24.6875ZM24.6875 18.4062L25.6862 18.355C25.6236 17.1354 25.2026 16.0755 24.3121 15.3333C23.4476 14.6129 22.2803 14.3102 20.9592 14.2815L20.9375 15.2812L20.9158 16.281C21.9905 16.3044 22.6462 16.5485 23.0317 16.8698C23.3912 17.1693 23.6472 17.6459 23.6888 18.4575L24.6875 18.4062ZM42.5 15.2812H43.5V4.89062H42.5H41.5V15.2812H42.5ZM42.5 4.89062V5.89062C47.2393 5.89062 50.9201 7.74846 53.6444 11.4944L54.4531 10.9062L55.2619 10.3181C52.1529 6.04321 47.8649 3.89062 42.5 3.89062V4.89062ZM54.4531 10.9062L53.6394 11.4875C55.1272 13.5705 55.7969 15.4273 55.7969 17.0781H56.7969H57.7969C57.7969 14.8748 56.904 12.617 55.2669 10.325L54.4531 10.9062ZM56.7969 17.0781H55.7969V49.5H56.7969H57.7969V17.0781H56.7969ZM56.7969 49.5V48.5H46.1719V49.5V50.5H56.7969V49.5ZM46.1719 49.5H47.1719V18.4062H46.1719H45.1719V49.5H46.1719ZM46.1719 18.4062L47.1706 18.355C47.1084 17.142 46.6981 16.084 45.8239 15.34C44.9722 14.6152 43.8216 14.3104 42.5222 14.2815L42.5 15.2812L42.4778 16.281C43.5221 16.3042 44.1554 16.5463 44.5277 16.8631C44.8774 17.1608 45.1312 17.6393 45.1732 18.4575L46.1719 18.4062Z" fill="black" mask="url(#path-1-outside-1_239_10)"/>
</svg>
