<svg preserveAspectRatio="none" width="100%" height="100%" overflow="visible" style="display: block;" viewBox="0 0 156 42" fill="none" xmlns="http://www.w3.org/2000/svg">
<g id="Logo" clip-path="url(#clip0_131_545)">
<path id="Vector" fill-rule="evenodd" clip-rule="evenodd" d="M0.324136 4.62331L3.05137 3.42687C13.1899 -1.02091 24.7066 -1.02091 34.8451 3.42687L37.5724 4.62331V23.1117C37.5724 33.4781 29.2341 41.8818 18.9482 41.8818C8.66242 41.8818 0.324136 33.4781 0.324136 23.1117V4.62331ZM6.22484 8.53329V16.6242C6.85412 16.4707 7.47207 16.2679 8.07294 16.0171C9.59426 15.382 10.9765 14.4511 12.1409 13.2777C13.3053 12.1042 14.2289 10.7111 14.859 9.17786C15.2529 8.21966 15.5272 7.21843 15.6776 6.19712C12.459 6.51115 9.27444 7.2899 6.22484 8.53329ZM6.22591 23.281C6.85482 23.4345 7.4724 23.6372 8.07294 23.8879C9.59426 24.5229 10.9765 25.4538 12.1409 26.6273C13.3053 27.8007 14.2289 29.1938 14.859 30.7271C15.4866 32.254 15.8108 33.8901 15.8135 35.5426C10.3544 34.1486 6.30185 29.198 6.22591 23.281ZM18.7638 25.4796C18.0582 24.3787 17.2373 23.3534 16.3133 22.4222C15.3893 21.4909 14.372 20.6636 13.2796 19.9525C14.372 19.2413 15.3893 18.414 16.3133 17.4827C17.2373 16.5515 18.0582 15.5262 18.7638 14.4253C19.4695 15.5262 20.2904 16.5515 21.2144 17.4827C22.1384 18.414 23.1557 19.2413 24.2481 19.9525C23.1557 20.6636 22.1384 21.4909 21.2144 22.4222C20.2904 23.3534 19.4695 24.3787 18.7638 25.4796ZM21.7142 35.6309C27.3848 34.364 31.6322 29.2837 31.6714 23.1967C30.9147 23.3572 30.1726 23.5882 29.4548 23.8879C27.9334 24.5229 26.5512 25.4538 25.3868 26.6273C24.2224 27.8007 23.2988 29.1938 22.6687 30.7271C22.0385 32.2602 21.7142 33.9036 21.7142 35.5631V35.6309ZM29.4548 16.0171C30.1726 16.3167 30.9149 16.5478 31.6717 16.7083V8.53329C28.504 7.24177 25.1908 6.45157 21.8451 6.16274C21.9943 7.19598 22.2704 8.20892 22.6687 9.17786C23.2988 10.7111 24.2224 12.1042 25.3868 13.2777C26.5512 14.4511 27.9334 15.382 29.4548 16.0171Z" fill="var(--fill-0, #193070)"/>
<path id="Vector_2" fill-rule="evenodd" clip-rule="evenodd" d="M81.8823 38.1932C80.9972 38.1932 80.2006 37.9791 79.4925 37.551C78.7844 37.1108 78.2239 36.5161 77.8108 35.7668C77.4096 35.0055 77.2089 34.1492 77.2089 33.1977C77.2089 32.2343 77.4096 31.3779 77.8108 30.6286C78.2239 29.8793 78.7785 29.2906 79.4748 28.8624C80.1829 28.4223 80.9854 28.2023 81.8823 28.2023C82.6966 28.2023 83.4224 28.3807 84.0597 28.7375C84.5815 29.0296 85.0123 29.4054 85.3519 29.8649V24.4736H86.6796V37.9791H85.3519V36.4208C85.034 36.9273 84.6092 37.3339 84.0774 37.6402C83.4283 38.0089 82.6966 38.1932 81.8823 38.1932ZM81.9531 36.855C82.5904 36.855 83.1628 36.6945 83.6702 36.3733C84.1895 36.0522 84.5966 35.6181 84.8917 35.071C85.1985 34.512 85.3519 33.8875 85.3519 33.1977C85.3519 32.5078 85.1985 31.8894 84.8917 31.3423C84.5966 30.7832 84.1895 30.3432 83.6702 30.022C83.1628 29.7009 82.5904 29.5403 81.9531 29.5403C81.3276 29.5403 80.7612 29.7009 80.2537 30.022C79.7462 30.3432 79.345 30.7773 79.05 31.3244C78.7667 31.8715 78.6251 32.496 78.6251 33.1977C78.6251 33.8875 78.7667 34.512 79.05 35.071C79.345 35.6181 79.7403 36.0522 80.236 36.3733C80.7435 36.6945 81.3158 36.855 81.9531 36.855Z" fill="var(--fill-0, #788199)"/>
<path id="Vector_3" fill-rule="evenodd" clip-rule="evenodd" d="M90.7865 37.551C91.5064 37.9791 92.3089 38.1932 93.194 38.1932C93.843 38.1932 94.4331 38.0862 94.9642 37.8721C95.507 37.6461 95.9732 37.3547 96.3626 36.9978C96.7521 36.6291 97.0412 36.2306 97.23 35.8024L96.0971 35.1959C95.8021 35.6954 95.4185 36.1117 94.9465 36.4447C94.4744 36.7777 93.8902 36.9442 93.194 36.9442C92.5921 36.9442 92.0256 36.7896 91.4946 36.4804C90.9753 36.1711 90.5622 35.737 90.2554 35.178C90.0172 34.7168 89.8944 34.1935 89.887 33.608H97.354C97.3776 33.4534 97.3953 33.3047 97.4071 33.162C97.4189 33.0074 97.4248 32.8706 97.4248 32.7517C97.4248 32.1808 97.3245 31.6277 97.1238 31.0925C96.9232 30.5454 96.6341 30.0577 96.2564 29.6295C95.8788 29.1895 95.4185 28.8446 94.8757 28.5948C94.3446 28.3331 93.7368 28.2023 93.0523 28.2023C92.1908 28.2023 91.4119 28.4164 90.7157 28.8446C90.0312 29.2727 89.4883 29.8615 89.0871 30.6108C88.6858 31.3482 88.4852 32.1986 88.4852 33.162C88.4852 34.1254 88.6917 34.9877 89.1048 35.7489C89.5178 36.5101 90.0784 37.1108 90.7865 37.551ZM89.908 32.3592C89.9519 31.9374 90.0618 31.5568 90.2377 31.2174C90.5209 30.6584 90.9104 30.2242 91.406 29.915C91.9135 29.6058 92.4623 29.4511 93.0523 29.4511C93.6424 29.4511 94.1735 29.6058 94.6455 29.915C95.1176 30.2123 95.4775 30.6227 95.7254 31.146C95.912 31.5136 96.0038 31.918 96.0016 32.3592H89.908Z" fill="var(--fill-0, #788199)"/>
<path id="Vector_4" d="M99.2344 28.4164H100.562V29.5813C100.804 29.2049 101.117 28.8999 101.5 28.6662C102.02 28.3569 102.586 28.2023 103.2 28.2023C103.931 28.2023 104.592 28.4104 105.182 28.8267C105.639 29.1485 105.993 29.5449 106.244 30.016C106.487 29.4979 106.835 29.0896 107.289 28.791C107.879 28.3985 108.528 28.2023 109.236 28.2023C109.873 28.2023 110.458 28.3569 110.989 28.6662C111.532 28.9754 111.962 29.4036 112.281 29.9507C112.611 30.4859 112.777 31.0925 112.777 31.7704V37.9791H111.449V32.2878C111.449 31.705 111.343 31.2114 111.13 30.807C110.93 30.4026 110.652 30.0934 110.298 29.8793C109.944 29.6533 109.537 29.5403 109.077 29.5403C108.628 29.5403 108.221 29.6533 107.855 29.8793C107.49 30.0934 107.2 30.4086 106.988 30.8249C106.776 31.2293 106.669 31.7169 106.669 32.2878V37.9791H105.342V32.2878C105.342 31.705 105.235 31.2114 105.023 30.807C104.822 30.4026 104.545 30.0934 104.191 29.8793C103.837 29.6533 103.43 29.5403 102.97 29.5403C102.509 29.5403 102.096 29.6533 101.73 29.8793C101.376 30.0934 101.093 30.4086 100.881 30.8249C100.668 31.2293 100.562 31.7169 100.562 32.2878V37.9791H99.2344V28.4164Z" fill="var(--fill-0, #788199)"/>
<path id="Vector_5" d="M114.802 41.9041C114.614 41.9041 114.419 41.8863 114.218 41.8506C114.029 41.8268 113.841 41.7792 113.652 41.7079V40.459C113.77 40.4709 113.917 40.4887 114.094 40.5125C114.283 40.5482 114.472 40.5661 114.661 40.5661C115.239 40.5661 115.682 40.4412 115.988 40.1914C116.295 39.9535 116.596 39.4897 116.891 38.7998L117.234 37.9862L113.439 28.4164H114.873L117.98 36.31L121.069 28.4164H122.538L118.201 39.1923C118.012 39.6562 117.77 40.0962 117.475 40.5125C117.192 40.9288 116.832 41.2618 116.396 41.5116C115.959 41.7733 115.428 41.9041 114.802 41.9041Z" fill="var(--fill-0, #788199)"/>
<path id="Vector_6" fill-rule="evenodd" clip-rule="evenodd" d="M69.132 37.8543C69.604 38.0802 70.141 38.1932 70.7432 38.1932C71.2979 38.1932 71.8054 38.11 72.2652 37.9435C72.7373 37.7651 73.1444 37.5331 73.4867 37.2477C73.7238 37.0485 73.9185 36.8361 74.0709 36.6103V37.9791H75.3989V31.4136C75.3989 30.7832 75.2455 30.2302 74.9383 29.7544C74.6432 29.2668 74.2243 28.8862 73.6818 28.6126C73.1504 28.3391 72.537 28.2023 71.8404 28.2023C71.3097 28.2023 70.796 28.3034 70.3003 28.5056C69.8046 28.6959 69.3621 28.9576 68.9727 29.2906C68.5954 29.6236 68.3177 29.9923 68.1407 30.3967L69.3448 31.0568C69.5568 30.5929 69.8814 30.2183 70.3184 29.9328C70.7547 29.6355 71.2621 29.4868 71.8404 29.4868C72.5013 29.4868 73.0386 29.6652 73.4517 30.022C73.8643 30.3789 74.0709 30.8427 74.0709 31.4136V31.9072L70.6366 32.4841C69.9404 32.603 69.368 32.8052 68.9199 33.0906C68.4711 33.3761 68.1407 33.727 67.9282 34.1432C67.7162 34.5476 67.61 34.9996 67.61 35.4991C67.61 36.0225 67.7453 36.4863 68.0167 36.8907C68.2885 37.2953 68.6599 37.6164 69.132 37.8543ZM74.0709 33.1204V33.84C74.0709 34.4228 73.9355 34.952 73.6637 35.4278C73.3923 35.9035 73.0146 36.2841 72.5311 36.5696C72.0473 36.8431 71.4808 36.9799 70.8314 36.9799C70.3003 36.9799 69.8637 36.8312 69.5214 36.5339C69.1913 36.2366 69.0261 35.8738 69.0261 35.4456C69.0261 35.0055 69.1736 34.6249 69.4683 34.3038C69.7751 33.9827 70.2708 33.7626 70.9553 33.6437L74.0709 33.1204Z" fill="var(--fill-0, #788199)"/>
<path id="Vector_7" d="M62.4258 38.1932C61.4935 38.1932 60.6733 37.9732 59.9652 37.5331C59.2571 37.0929 58.7025 36.4982 58.3012 35.7489C57.9 34.9877 57.6993 34.1314 57.6993 33.1799C57.6993 32.2283 57.9 31.3779 58.3012 30.6286C58.7025 29.8793 59.2571 29.2906 59.9652 28.8624C60.6733 28.4223 61.4935 28.2023 62.4258 28.2023C63.0159 28.2023 63.5706 28.3093 64.0898 28.5234C64.6091 28.7375 65.0693 29.0289 65.4706 29.3976C65.8718 29.7544 66.1728 30.1707 66.3734 30.6465L65.1696 31.2709C64.9336 30.7595 64.5737 30.3432 64.0898 30.022C63.606 29.7009 63.0513 29.5403 62.4258 29.5403C61.8003 29.5403 61.2339 29.7009 60.7264 30.022C60.2308 30.3313 59.8354 30.7654 59.5404 31.3244C59.2571 31.8715 59.1155 32.496 59.1155 33.1977C59.1155 33.8875 59.2571 34.512 59.5404 35.071C59.8354 35.6181 60.2308 36.0522 60.7264 36.3733C61.2339 36.6945 61.8003 36.855 62.4258 36.855C63.0513 36.855 63.6001 36.6945 64.0721 36.3733C64.556 36.0522 64.9218 35.624 65.1696 35.0888L66.3734 35.7489C66.1728 36.2128 65.8718 36.6291 65.4706 36.9978C65.0693 37.3666 64.6091 37.658 64.0898 37.8721C63.5706 38.0862 63.0159 38.1932 62.4258 38.1932Z" fill="var(--fill-0, #788199)"/>
<path id="Vector_8" fill-rule="evenodd" clip-rule="evenodd" d="M51.0644 24.6877L46.2494 37.9792H47.7364L48.887 34.732H54.7818L55.9148 37.9792H57.4017L52.5868 24.6877H51.0644ZM54.2862 33.3939H49.3473L51.8248 26.363L54.2862 33.3939Z" fill="var(--fill-0, #788199)"/>
<path id="Vector_9" d="M47.4491 3.15884V19.0232H57.38V16.1485H50.724V3.15884H47.4491Z" fill="var(--fill-0, #0C193E)"/>
<path id="Vector_10" d="M97.4627 19.0232H100.632V7.39646H97.4627V19.0232Z" fill="var(--fill-0, #0C193E)"/>
<path id="Vector_11" d="M97.4627 3.15884V6.35304H100.632V3.15884H97.4627Z" fill="var(--fill-0, #0C193E)"/>
<path id="Vector_12" fill-rule="evenodd" clip-rule="evenodd" d="M102.318 23.2822V7.39646H105.276V8.60264C105.618 8.19728 106.04 7.87329 106.543 7.63069C107.205 7.30417 107.959 7.14093 108.804 7.14093C109.903 7.14093 110.896 7.41066 111.783 7.95012C112.671 8.48958 113.375 9.22067 113.896 10.1434C114.417 11.052 114.678 12.0741 114.678 13.2099C114.678 14.3314 114.417 15.3535 113.896 16.2763C113.389 17.199 112.692 17.9301 111.804 18.4696C110.917 19.0091 109.91 19.2788 108.783 19.2788C107.994 19.2788 107.262 19.1368 106.586 18.8529C106.169 18.6654 105.803 18.4245 105.487 18.1304V23.2822H102.318ZM108.403 16.404C108.994 16.404 109.515 16.2692 109.966 15.9994C110.417 15.7297 110.769 15.3535 111.023 14.8708C111.276 14.3882 111.403 13.8345 111.403 13.2099C111.403 12.5852 111.276 12.0386 111.023 11.5702C110.769 11.0875 110.417 10.7113 109.966 10.4416C109.515 10.1576 108.994 10.0157 108.403 10.0157C107.839 10.0157 107.332 10.1505 106.881 10.4203C106.445 10.69 106.1 11.0662 105.846 11.5489C105.606 12.0315 105.487 12.5852 105.487 13.2099C105.487 13.8345 105.606 14.3882 105.846 14.8708C106.1 15.3535 106.445 15.7297 106.881 15.9994C107.332 16.2692 107.839 16.404 108.403 16.404Z" fill="var(--fill-0, #0C193E)"/>
<path id="Vector_13" d="M117.105 18.3844C118.048 18.9807 119.154 19.2788 120.422 19.2788C121.323 19.2788 122.105 19.1297 122.767 18.8316C123.429 18.5193 123.944 18.0934 124.31 17.554C124.69 17.0145 124.88 16.3827 124.88 15.6587C124.88 14.8211 124.627 14.1184 124.12 13.5506C123.612 12.9685 122.88 12.5355 121.922 12.2516L120.084 11.6979C119.802 11.6128 119.563 11.5205 119.365 11.4211C119.183 11.3218 119.049 11.2082 118.964 11.0804C118.88 10.9526 118.837 10.8107 118.837 10.6545C118.837 10.3564 118.95 10.1221 119.176 9.95181C119.415 9.78143 119.739 9.69628 120.147 9.69628C120.711 9.69628 121.211 9.84532 121.648 10.1434C122.098 10.4274 122.408 10.8107 122.577 11.2934L124.922 10.186C124.57 9.22067 123.965 8.47538 123.105 7.95012C122.26 7.41066 121.274 7.14093 120.147 7.14093C119.288 7.14093 118.528 7.29707 117.865 7.6094C117.203 7.90752 116.689 8.3263 116.323 8.86575C115.957 9.40525 115.774 10.037 115.774 10.761C115.774 11.5844 116.027 12.3013 116.534 12.9117C117.041 13.508 117.767 13.941 118.71 14.2107L120.675 14.7643C120.929 14.8353 121.14 14.9205 121.309 15.0199C121.478 15.1193 121.605 15.2328 121.69 15.3606C121.774 15.4742 121.816 15.6161 121.816 15.7865C121.816 16.113 121.697 16.3686 121.457 16.5531C121.218 16.7376 120.873 16.8299 120.422 16.8299C119.802 16.8299 119.239 16.6525 118.732 16.2976C118.224 15.9426 117.823 15.4529 117.527 14.8282L115.203 15.9355C115.541 16.9577 116.175 17.774 117.105 18.3844Z" fill="var(--fill-0, #0C193E)"/>
<path id="Vector_14" d="M138.155 7.39646H141.113V8.80097C141.33 8.37603 141.633 8.0356 142.022 7.77974C142.67 7.35387 143.444 7.14093 144.346 7.14093C145.304 7.14093 146.142 7.38936 146.861 7.88622C147.288 8.16777 147.621 8.5073 147.862 8.90482C148.167 8.45501 148.531 8.09418 148.952 7.82233C149.656 7.36806 150.481 7.14093 151.424 7.14093C152.255 7.14093 152.988 7.32547 153.622 7.69459C154.27 8.06367 154.777 8.58183 155.143 9.24907C155.509 9.90211 155.692 10.6687 155.692 11.5489V19.0232H152.523V12.2303C152.523 11.776 152.439 11.3856 152.27 11.0591C152.114 10.7326 151.889 10.4771 151.593 10.2925C151.298 10.1079 150.938 10.0157 150.516 10.0157C150.107 10.0157 149.748 10.1079 149.438 10.2925C149.142 10.4771 148.91 10.7326 148.741 11.0591C148.586 11.3856 148.509 11.776 148.509 12.2303V19.0232H145.339V12.2303C145.339 11.776 145.255 11.3856 145.086 11.0591C144.931 10.7326 144.705 10.4771 144.41 10.2925C144.114 10.1079 143.755 10.0157 143.332 10.0157C142.923 10.0157 142.564 10.1079 142.254 10.2925C141.959 10.4771 141.726 10.7326 141.557 11.0591C141.402 11.3856 141.325 11.776 141.325 12.2303V19.0232H138.155V7.39646Z" fill="var(--fill-0, #0C193E)"/>
<path id="Vector_15" d="M130.282 19.2788C129.352 19.2788 128.556 19.08 127.894 18.6826C127.246 18.2709 126.753 17.703 126.415 16.979C126.077 16.255 125.908 15.4103 125.908 14.445V7.39646H129.078V14.1894C129.078 14.6295 129.162 15.0199 129.331 15.3606C129.514 15.6871 129.768 15.9426 130.092 16.1272C130.416 16.3118 130.782 16.404 131.19 16.404C131.613 16.404 131.979 16.3118 132.289 16.1272C132.613 15.9426 132.86 15.6871 133.029 15.3606C133.212 15.0199 133.303 14.6295 133.303 14.1894V7.39646H136.473V19.0232H133.515V17.6084C133.246 18.1189 132.866 18.5124 132.374 18.789C131.782 19.1155 131.085 19.2788 130.282 19.2788Z" fill="var(--fill-0, #0C193E)"/>
<path id="Vector_16" fill-rule="evenodd" clip-rule="evenodd" d="M90.0599 19.2788C88.9189 19.2788 87.8763 19.0161 86.9326 18.4909C86.0028 17.9656 85.2564 17.2487 84.6929 16.3402C84.1437 15.4174 83.869 14.374 83.869 13.2099C83.869 12.0315 84.1437 10.9881 84.6929 10.0796C85.2564 9.17098 86.0028 8.45408 86.9326 7.92882C87.8763 7.40356 88.9189 7.14093 90.0599 7.14093C91.2006 7.14093 92.2362 7.40356 93.1659 7.92882C94.0953 8.45408 94.8351 9.17098 95.3842 10.0796C95.9477 10.9881 96.2295 12.0315 96.2295 13.2099C96.2295 14.374 95.9477 15.4174 95.3842 16.3402C94.8351 17.2487 94.0953 17.9656 93.1659 18.4909C92.2362 19.0161 91.2006 19.2788 90.0599 19.2788ZM90.0599 16.404C90.6375 16.404 91.1376 16.2692 91.5598 15.9994C91.9965 15.7297 92.3347 15.3535 92.574 14.8708C92.8277 14.3882 92.9546 13.8345 92.9546 13.2099C92.9546 12.5852 92.8277 12.0386 92.574 11.5702C92.3347 11.0875 91.9965 10.7113 91.5598 10.4416C91.1376 10.1576 90.6375 10.0157 90.0599 10.0157C89.4824 10.0157 88.9753 10.1576 88.5387 10.4416C88.1016 10.7113 87.7568 11.0875 87.5031 11.5702C87.2637 12.0386 87.1439 12.5852 87.1439 13.2099C87.1439 13.8345 87.2637 14.3882 87.5031 14.8708C87.7568 15.3535 88.1016 15.7297 88.5387 15.9994C88.9753 16.2692 89.4824 16.404 90.0599 16.404Z" fill="var(--fill-0, #0C193E)"/>
<path id="Vector_17" fill-rule="evenodd" clip-rule="evenodd" d="M74.4574 23.2609C75.2178 23.559 76.0421 23.708 76.9294 23.708C78.042 23.708 79.0212 23.4809 79.8665 23.0266C80.7258 22.5723 81.4018 21.9406 81.8948 21.1314C82.3875 20.3364 82.6343 19.4279 82.6343 18.4057V7.39646H79.6762V8.61762C79.328 8.20606 78.9338 7.88414 78.4931 7.65199C77.8731 7.31127 77.1477 7.14093 76.3164 7.14093C75.2602 7.14093 74.3165 7.38226 73.4852 7.86493C72.6543 8.34759 71.9993 9.01484 71.5203 9.86662C71.0412 10.7042 70.8019 11.6695 70.8019 12.7626C70.8019 13.8558 71.0412 14.8353 71.5203 15.7013C71.9993 16.5531 72.6613 17.2274 73.5066 17.7243C74.3515 18.207 75.3093 18.4483 76.3799 18.4483C77.2111 18.4483 77.9366 18.2922 78.5561 17.9798C78.8921 17.8028 79.1953 17.5779 79.4648 17.305V18.4057C79.4648 18.9026 79.3594 19.3356 79.1481 19.7047C78.9507 20.0738 78.662 20.3506 78.2818 20.5352C77.9012 20.7339 77.4505 20.8333 76.9294 20.8333C76.2674 20.8333 75.6969 20.6771 75.2178 20.3648C74.7391 20.0525 74.422 19.6266 74.2671 19.0871L71.33 20.1306C71.5697 20.8546 71.9569 21.4792 72.4924 22.0045C73.0416 22.544 73.6965 22.9627 74.4574 23.2609ZM78.2183 15.2115C77.8237 15.4387 77.359 15.5523 76.8235 15.5523C76.2884 15.5523 75.8094 15.4387 75.3871 15.2115C74.9785 14.9702 74.6543 14.6437 74.4149 14.232C74.1896 13.8203 74.0768 13.3447 74.0768 12.8052C74.0768 12.2516 74.1896 11.7689 74.4149 11.3572C74.6543 10.9313 74.9785 10.6048 75.3871 10.3777C75.8094 10.1363 76.2884 10.0157 76.8235 10.0157C77.345 10.0157 77.8027 10.1363 78.1969 10.3777C78.5915 10.6048 78.9013 10.9313 79.1267 11.3572C79.3524 11.7689 79.4648 12.2516 79.4648 12.8052C79.4648 13.3589 79.3524 13.8416 79.1267 14.2533C78.9153 14.665 78.6126 14.9844 78.2183 15.2115Z" fill="var(--fill-0, #0C193E)"/>
<path id="Vector_18" fill-rule="evenodd" clip-rule="evenodd" d="M63.8637 19.2788C62.7227 19.2788 61.6805 19.0161 60.7367 18.4909C59.807 17.9656 59.0606 17.2487 58.4971 16.3402C57.9475 15.4174 57.6732 14.374 57.6732 13.2099C57.6732 12.0315 57.9475 10.9881 58.4971 10.0796C59.0606 9.17098 59.807 8.45408 60.7367 7.92882C61.6805 7.40356 62.7227 7.14093 63.8637 7.14093C65.0048 7.14093 66.04 7.40356 66.9697 7.92882C67.8995 8.45408 68.6389 9.17098 69.1884 10.0796C69.7519 10.9881 70.0337 12.0315 70.0337 13.2099C70.0337 14.374 69.7519 15.4174 69.1884 16.3402C68.6389 17.2487 67.8995 17.9656 66.9697 18.4909C66.04 19.0161 65.0048 19.2788 63.8637 19.2788ZM63.8637 16.404C64.4413 16.404 64.9414 16.2692 65.364 15.9994C65.8007 15.7297 66.1388 15.3535 66.3782 14.8708C66.6319 14.3882 66.7584 13.8345 66.7584 13.2099C66.7584 12.5852 66.6319 12.0386 66.3782 11.5702C66.1388 11.0875 65.8007 10.7113 65.364 10.4416C64.9414 10.1576 64.4413 10.0157 63.8637 10.0157C63.2862 10.0157 62.7791 10.1576 62.3425 10.4416C61.9058 10.7113 61.5606 11.0875 61.3073 11.5702C61.0679 12.0386 60.9481 12.5852 60.9481 13.2099C60.9481 13.8345 61.0679 14.3882 61.3073 14.8708C61.5606 15.3535 61.9058 15.7297 62.3425 15.9994C62.7791 16.2692 63.2862 16.404 63.8637 16.404Z" fill="var(--fill-0, #0C193E)"/>
<rect id="Rectangle 16" x="-318" y="-63" width="120" height="1" fill="url(#paint0_linear_131_545)"/>
</g>
<defs>
<linearGradient id="paint0_linear_131_545" x1="-318" y1="-62.5" x2="-198" y2="-62.5" gradientUnits="userSpaceOnUse">
<stop stop-color="#006AFF"/>
<stop offset="1" stop-color="#004099"/>
</linearGradient>
<clipPath id="clip0_131_545">
<rect width="156" height="42" fill="white"/>
</clipPath>
</defs>
</svg>
