<svg width="120" height="120" viewBox="0 0 120 120" fill="none" xmlns="http://www.w3.org/2000/svg">
<rect width="120" height="120" rx="10" fill="url(#paint0_linear_231_14)"/>
<path d="M37.7275 78V51.6572C37.7275 49.5413 38.6585 47.4889 40.5205 45.5C42.8903 43.0456 45.7891 41.7972 49.2168 41.7549V50.1973C47.5241 50.4512 46.5719 51.2975 46.3604 52.7363V78H37.7275ZM52.1367 50.1973V41.7549C55.0143 41.7972 57.4688 42.5801 59.5 44.1035C61.4466 42.5378 63.8799 41.7549 66.7998 41.7549V50.1973C64.8532 50.2396 63.8587 51.0859 63.8164 52.7363V78H55.1836V52.7363C55.099 51.0859 54.0833 50.2396 52.1367 50.1973ZM69.6562 50.1973V41.7549C73.7611 41.7549 76.9984 43.3841 79.3682 46.6426C80.6377 48.4199 81.2725 50.0915 81.2725 51.6572V78H72.6396V52.7363C72.555 51.0859 71.5605 50.2396 69.6562 50.1973Z" fill="#00419C"/>
<defs>
<linearGradient id="paint0_linear_231_14" x1="60" y1="0" x2="60" y2="120" gradientUnits="userSpaceOnUse">
<stop stop-color="white"/>
<stop offset="1" stop-color="#E0E0E0"/>
</linearGradient>
</defs>
</svg>
