<svg preserveAspectRatio="none" width="100%" height="100%" overflow="visible" style="display: block;" viewBox="0 0 195 44" fill="none" xmlns="http://www.w3.org/2000/svg">
<g id="logo-modernweb">
<path id="Vector" d="M0 35.7204V15.5733C0 13.9551 0.71594 12.3854 2.14782 10.8643C3.97022 8.98712 6.19939 8.03236 8.83536 8V14.4567C7.53365 14.6509 6.80144 15.2982 6.63872 16.3986V35.7204H0ZM11.0808 14.4567V8C13.2937 8.03236 15.1812 8.63111 16.7433 9.79624C18.2402 8.59875 20.1114 8 22.3569 8V14.4567C20.86 14.4891 20.0952 15.1364 20.0627 16.3986V35.7204H13.4239V16.3986C13.3588 15.1364 12.5778 14.4891 11.0808 14.4567ZM24.5536 14.4567V8C27.7102 8 30.1996 9.24604 32.0221 11.7381C32.9984 13.0974 33.4865 14.3758 33.4865 15.5733V35.7204H26.8478V16.3986C26.7826 15.1364 26.0179 14.4891 24.5536 14.4567ZM45.1824 36C43.5161 36 42.0166 35.6374 40.6837 34.9124C39.3508 34.1667 38.2989 33.1207 37.5283 31.7743C36.7785 30.4281 36.4036 28.8746 36.4036 27.1138C36.4036 25.3532 36.789 23.7997 37.5595 22.4534C38.351 21.107 39.4235 20.0714 40.7774 19.3464C42.1312 18.6007 43.6411 18.2279 45.3073 18.2279C46.9736 18.2279 48.4834 18.6007 49.8373 19.3464C51.1911 20.0714 52.2533 21.107 53.0239 22.4534C53.8154 23.7997 54.211 25.3532 54.211 27.1138C54.211 28.8746 53.8049 30.4281 52.9926 31.7743C52.2011 33.1207 51.1182 34.1667 49.7436 34.9124C48.3897 35.6374 46.8694 36 45.1824 36ZM45.1824 32.2093C45.9739 32.2093 46.7132 32.0229 47.4005 31.65C48.1086 31.2565 48.6709 30.6766 49.0875 29.9101C49.5041 29.1438 49.7123 28.2117 49.7123 27.1138C49.7123 25.4775 49.2749 24.2243 48.4002 23.3544C47.5462 22.4638 46.4945 22.0184 45.2448 22.0184C43.9952 22.0184 42.9435 22.4638 42.0895 23.3544C41.2565 24.2243 40.8399 25.4775 40.8399 27.1138C40.8399 28.7503 41.246 30.0137 42.0583 30.9044C42.8913 31.7743 43.9327 32.2093 45.1824 32.2093ZM56.2946 27.0517C56.2946 25.3118 56.6383 23.7687 57.3256 22.4223C58.0337 21.0759 58.9918 20.0403 60.1998 19.3153C61.4077 18.5903 62.7511 18.2279 64.2299 18.2279C65.3545 18.2279 66.4272 18.4764 67.4477 18.9735C68.4682 19.45 69.2805 20.0921 69.8845 20.8999V12.7285H74.3207V35.7204H69.8845V33.1725C69.3429 34.0218 68.5828 34.7053 67.6039 35.2231C66.625 35.741 65.49 36 64.1986 36C62.7408 36 61.4077 35.6272 60.1998 34.8813C58.9918 34.1356 58.0337 33.0897 57.3256 31.7433C56.6383 30.3762 56.2946 28.8124 56.2946 27.0517ZM69.9157 27.1138C69.9157 26.0574 69.7075 25.1564 69.2909 24.4107C68.8743 23.6444 68.312 23.0644 67.6039 22.6709C66.8958 22.2566 66.1356 22.0495 65.3233 22.0495C64.511 22.0495 63.7613 22.2463 63.0739 22.6398C62.3866 23.0334 61.8243 23.6133 61.3869 24.3797C60.9703 25.1253 60.7621 26.0161 60.7621 27.0517C60.7621 28.0874 60.9703 28.9988 61.3869 29.7858C61.8243 30.5523 62.3866 31.1427 63.0739 31.5568C63.782 31.9711 64.5318 32.1782 65.3233 32.1782C66.1356 32.1782 66.8958 31.9816 67.6039 31.5879C68.312 31.1737 68.8743 30.5937 69.2909 29.848C69.7075 29.0816 69.9157 28.1702 69.9157 27.1138ZM94.6816 26.741C94.6816 27.3624 94.6399 27.9216 94.5566 28.4188H81.904C82.0082 29.6616 82.4456 30.6351 83.2161 31.3393C83.9867 32.0437 84.9344 32.3957 86.0591 32.3957C87.6836 32.3957 88.8395 31.7019 89.5268 30.314H94.2442C93.7444 31.9711 92.7864 33.3382 91.3701 34.4153C89.9537 35.4717 88.2147 36 86.1528 36C84.4866 36 82.987 35.6374 81.6541 34.9124C80.342 34.1667 79.311 33.1207 78.5612 31.7743C77.8322 30.4281 77.4678 28.8746 77.4678 27.1138C77.4678 25.3326 77.8322 23.7687 78.5612 22.4223C79.2902 21.0759 80.3107 20.0403 81.6229 19.3153C82.935 18.5903 84.445 18.2279 86.1528 18.2279C87.7981 18.2279 89.2664 18.58 90.5578 19.2842C91.8699 19.9885 92.8801 20.9931 93.5882 22.298C94.3172 23.5822 94.6816 25.0632 94.6816 26.741ZM90.1517 25.4982C90.1309 24.3797 89.7248 23.4891 88.9333 22.8262C88.1418 22.1427 87.1733 21.8009 86.0278 21.8009C84.9449 21.8009 84.0284 22.1323 83.2786 22.7952C82.5496 23.4373 82.1019 24.3383 81.9353 25.4982H90.1517ZM102.248 21.1795C102.81 20.2681 103.539 19.5535 104.435 19.0357C105.351 18.5179 106.392 18.2589 107.559 18.2589V22.8262H106.403C105.028 22.8262 103.987 23.1473 103.279 23.7893C102.591 24.4315 102.248 25.5501 102.248 27.1449V35.7204H97.874V18.5075H102.248V21.1795ZM120.096 18.2589C122.158 18.2589 123.824 18.9114 125.094 20.2163C126.365 21.5006 127 23.3026 127 25.6225V35.7204H122.626V26.2128C122.626 24.8457 122.283 23.7997 121.595 23.0748C120.908 22.3291 119.971 21.9563 118.784 21.9563C117.576 21.9563 116.618 22.3291 115.909 23.0748C115.222 23.7997 114.878 24.8457 114.878 26.2128V35.7204H110.505V18.5075H114.878V20.6513C115.462 19.9056 116.201 19.3257 117.097 18.9114C118.013 18.4764 119.013 18.2589 120.096 18.2589Z" fill="var(--fill-0, black)"/>
<path id="Vector_2" d="M155.417 18.2246L146.772 35.7433H144.506L142.239 21.0802L134.695 35.7433H132.428L130 18.2246H132.331L134.047 33.3688L141.656 18.2246H143.955L146.124 33.4009L153.183 18.2246H155.417ZM166.214 17.9679C167.703 17.9679 168.976 18.2567 170.035 18.8342C171.092 19.3904 171.89 20.1604 172.431 21.1444C172.991 22.1283 173.272 23.2513 173.272 24.5132C173.272 25.0908 173.229 25.6042 173.143 26.0533C173.013 26.6951 172.884 27.2726 172.754 27.786H158.087C158.022 28.1925 157.99 28.5775 157.99 28.941C157.99 30.5881 158.485 31.8608 159.479 32.7592C160.493 33.6576 161.778 34.1068 163.332 34.1068C164.822 34.1068 166.126 33.7539 167.25 33.048C168.372 32.3421 169.193 31.3903 169.711 30.1924H172.139C171.404 31.9037 170.229 33.3047 168.61 34.3956C167.012 35.4651 165.145 36 163.008 36C160.807 36 159.036 35.3796 157.698 34.1389C156.381 32.877 155.722 31.1657 155.722 29.0052C155.722 28.3635 155.787 27.6897 155.917 26.9838C156.241 25.1657 156.889 23.5722 157.86 22.2032C158.853 20.8342 160.072 19.7861 161.519 19.0588C162.965 18.3315 164.53 17.9679 166.214 17.9679ZM170.812 26.1175C170.918 25.5186 170.974 25.016 170.974 24.6095C170.974 23.0909 170.488 21.9251 169.516 21.1123C168.545 20.2994 167.303 19.893 165.793 19.893C164.692 19.893 163.633 20.1283 162.62 20.5989C161.605 21.0695 160.719 21.7754 159.965 22.7165C159.209 23.6577 158.691 24.7914 158.411 26.1175H170.812ZM180.235 22.1069C181.012 20.8877 182.081 19.893 183.441 19.123C184.801 18.3529 186.302 17.9679 187.941 17.9679C190.078 17.9679 191.783 18.5989 193.057 19.8609C194.352 21.1016 195 22.7914 195 24.9304C195 25.5721 194.935 26.2459 194.806 26.9517C194.482 28.7485 193.834 30.3315 192.863 31.7004C191.892 33.0695 190.694 34.1283 189.269 34.8768C187.865 35.6256 186.355 36 184.736 36C183.073 36 181.704 35.6256 180.624 34.8768C179.544 34.1068 178.822 33.1121 178.455 31.8929L177.775 35.7433H175.541L179.782 12H182.016L180.235 22.1069ZM192.507 26.9517C192.615 26.31 192.669 25.7646 192.669 25.3154C192.669 23.6256 192.162 22.3101 191.147 21.369C190.155 20.4064 188.837 19.9251 187.197 19.9251C185.987 19.9251 184.833 20.2139 183.732 20.7914C182.631 21.369 181.692 22.1925 180.915 23.2619C180.138 24.3315 179.62 25.5721 179.361 26.9838C179.253 27.5829 179.199 28.1176 179.199 28.5881C179.199 30.2565 179.706 31.5828 180.721 32.5667C181.736 33.5508 183.052 34.0426 184.671 34.0426C185.923 34.0426 187.088 33.7646 188.168 33.2084C189.269 32.6309 190.197 31.8074 190.953 30.7378C191.73 29.6469 192.248 28.385 192.507 26.9517Z" fill="var(--fill-0, #00419C)"/>
</g>
</svg>
