<svg preserveAspectRatio="none" width="100%" height="100%" overflow="visible" style="display: block;" viewBox="0 0 184 65.7014" fill="none" xmlns="http://www.w3.org/2000/svg">
<g id="Container">
<path id="Vector" d="M67.6644 42.523L67.6644 23.1655C67.6565 22.8052 67.5776 22.4499 67.4321 22.1202C67.1544 21.4553 66.6258 20.9267 65.9609 20.649C65.6312 20.5035 65.2759 20.4246 64.9156 20.4167L45.5581 20.4167C45.1972 20.4167 44.8397 20.4878 44.5062 20.626C44.1727 20.7641 43.8697 20.9666 43.6145 21.2218C43.099 21.7373 42.8094 22.4365 42.8094 23.1655C42.8094 23.8945 43.099 24.5937 43.6145 25.1092C44.13 25.6247 44.8291 25.9143 45.5581 25.9143L58.3147 25.8949L43.6224 40.5872C43.109 41.1006 42.8206 41.7969 42.8206 42.523C42.8206 43.249 43.109 43.9453 43.6224 44.4587C44.1358 44.9721 44.8321 45.2605 45.5581 45.2605C46.2842 45.2605 46.9805 44.9721 47.4939 44.4587L62.1862 29.7664L62.1669 42.523C62.1654 42.8844 62.2355 43.2425 62.3731 43.5766C62.5107 43.9108 62.7131 44.2144 62.9686 44.4699C63.2242 44.7255 63.5278 44.9279 63.862 45.0655C64.1961 45.2031 64.5542 45.2732 64.9156 45.2717C65.277 45.2732 65.6351 45.2031 65.9693 45.0655C66.3034 44.9279 66.607 44.7255 66.8626 44.4699C67.1181 44.2144 67.3205 43.9108 67.4582 43.5766C67.5958 43.2425 67.6659 42.8843 67.6644 42.523Z" fill="var(--fill-0, white)"/>
</g>
</svg>
