<svg width="18" height="22" viewBox="0 0 18 22" fill="none" xmlns="http://www.w3.org/2000/svg">
<path fill-rule="evenodd" clip-rule="evenodd" d="M11.7631 1.93518L12.0411 2.28718C12.1811 2.46418 12.2601 2.56318 12.3241 2.63218L12.3841 2.69018L12.4561 2.70418C12.5451 2.71718 12.6661 2.72518 12.8861 2.73918L13.3241 2.76618C14.0061 2.80918 14.6041 2.84618 15.0591 2.94618C15.5411 3.05018 16.0651 3.26618 16.3431 3.82618C16.6181 4.37818 16.4841 4.92818 16.2891 5.38218C16.1031 5.81618 15.7841 6.33418 15.4171 6.93018L15.3871 6.97918L15.1831 7.30918C15.1034 7.4337 15.0284 7.56112 14.9581 7.69118C14.9448 7.71862 14.9328 7.74665 14.9221 7.77518V7.79118C14.9221 7.80318 14.9255 7.82985 14.9321 7.87118C14.9501 7.96718 14.9821 8.09218 15.0391 8.31218L15.1391 8.69318L15.1531 8.74818C15.3331 9.43818 15.4891 10.0342 15.5431 10.5062C15.5991 10.9932 15.5751 11.5682 15.1441 12.0162C14.7041 12.4742 14.1271 12.5042 13.6421 12.4462C13.1811 12.3912 12.6021 12.2302 11.9391 12.0472L11.5141 11.9292C11.3755 11.8881 11.2354 11.8521 11.0941 11.8212L11.0281 11.8112L10.9671 11.8412C10.8871 11.8852 10.7871 11.9522 10.6021 12.0752L10.2351 12.3202C9.66312 12.7012 9.16312 13.0352 8.74212 13.2322C8.30012 13.4382 7.74212 13.5902 7.18012 13.2922C6.82212 13.1022 6.61212 12.8072 6.48112 12.4922C4.20812 13.4512 2.35112 15.0982 1.70812 16.9922C1.65431 17.1509 1.54888 17.2871 1.40865 17.3789C1.26842 17.4707 1.10148 17.5129 0.934465 17.4987C0.767451 17.4846 0.609993 17.4149 0.48722 17.3008C0.364448 17.1867 0.283438 17.0347 0.257119 16.8692C-0.682881 10.9852 1.07312 7.43618 3.59712 5.50218C3.77212 5.10618 4.10412 4.84218 4.43312 4.64818C4.83412 4.41218 5.39012 4.19018 6.02612 3.93618L6.08012 3.91418L6.43312 3.77318C6.56775 3.72231 6.7005 3.6666 6.83112 3.60618L6.89512 3.56918L6.93412 3.49618C6.97412 3.41018 7.01712 3.29118 7.09512 3.07918L7.23012 2.71218L7.25012 2.65818C7.49412 1.99618 7.70512 1.42218 7.93012 1.00818C8.16112 0.582181 8.51612 0.118181 9.14212 0.018181C9.76712 -0.081819 10.2501 0.248181 10.6021 0.580181C10.9451 0.903181 11.3251 1.38318 11.7621 1.93518M3.90912 7.21018C2.48612 8.58118 1.38912 10.8002 1.50712 14.3182C2.67512 12.8502 4.38112 11.7022 6.20612 10.9862C6.18679 10.7375 6.16912 10.4725 6.15312 10.1912L6.12512 9.74118C6.11798 9.5905 6.10598 9.44009 6.08912 9.29018C6.08403 9.25787 6.07735 9.22584 6.06912 9.19418L6.06112 9.18418L6.00912 9.12618C5.90177 9.02444 5.79069 8.92671 5.67612 8.83318L5.33612 8.54718C4.80112 8.09518 4.33612 7.70218 4.02412 7.34818C3.98442 7.30334 3.94607 7.25732 3.90912 7.21018ZM7.78212 11.5902C7.80283 11.4519 7.78447 11.3106 7.72912 11.1822C7.69912 10.8862 7.67512 10.5152 7.64612 10.0422L7.62212 9.64918L7.61712 9.56518C7.59712 9.22118 7.57512 8.85518 7.41212 8.52618C7.24712 8.19618 6.96812 7.96018 6.70712 7.74118L6.64412 7.68818L6.34812 7.43818C5.75712 6.93818 5.38012 6.61718 5.14912 6.35618C5.07834 6.28229 5.01932 6.19798 4.97412 6.10618L4.97612 6.10318C5.04024 6.03882 5.11374 5.98454 5.19412 5.94218C5.48412 5.77118 5.93112 5.59018 6.63712 5.30818L6.99012 5.16718L7.06712 5.13718C7.37512 5.01518 7.71712 4.87918 7.97612 4.61018C8.23112 4.34518 8.35812 3.99718 8.47412 3.67818L8.50412 3.59818L8.63812 3.23118C8.90812 2.49918 9.08212 2.03118 9.24812 1.72618C9.2855 1.65242 9.3304 1.58271 9.38212 1.51818C9.41912 1.54018 9.48112 1.58518 9.57412 1.67318C9.82712 1.91118 10.1381 2.30118 10.6221 2.91318L10.8651 3.21918L10.9171 3.28618C11.1271 3.55218 11.3571 3.84418 11.6811 4.01618C12.0111 4.19118 12.3791 4.21318 12.7101 4.23218L12.7921 4.23718L13.1721 4.26118C13.9311 4.30818 14.4111 4.34118 14.7401 4.41118C14.8296 4.42671 14.9163 4.45571 14.9971 4.49718L14.9991 4.49818V4.51018C14.9837 4.60733 14.9541 4.70168 14.9111 4.79018C14.7731 5.11118 14.5151 5.53418 14.1091 6.19418L13.9061 6.52418L13.8621 6.59418C13.6831 6.88418 13.4911 7.19418 13.4381 7.56018C13.3851 7.92318 13.4781 8.27718 13.5671 8.61118L13.5881 8.69318L13.6881 9.07318C13.8861 9.83418 14.0131 10.3242 14.0531 10.6772C14.0721 10.8382 14.0661 10.9242 14.0591 10.9662C13.9791 10.9732 13.8985 10.9705 13.8191 10.9582C13.4861 10.9182 13.0191 10.7912 12.2831 10.5872L11.9151 10.4852L11.8351 10.4622C11.5151 10.3722 11.1581 10.2722 10.7901 10.3312C10.4221 10.3902 10.1141 10.5972 9.84012 10.7812L9.77012 10.8282L9.45212 11.0402C8.81612 11.4642 8.41212 11.7312 8.10812 11.8732C8.03704 11.9097 7.96183 11.9376 7.88412 11.9562C7.84258 11.8688 7.81395 11.7758 7.79912 11.6802L7.78212 11.5902ZM7.89612 11.9772L7.90412 11.9842C7.90412 11.9855 7.90145 11.9832 7.89612 11.9772ZM14.0821 10.9622C14.0895 10.9575 14.0938 10.9558 14.0951 10.9572L14.0821 10.9622ZM9.34912 1.50018C9.34245 1.50018 9.33912 1.49918 9.33912 1.49718L9.34912 1.50018Z" fill="white"/>
<path d="M7.02902 14.75C7.02902 14.75 7.66302 16.14 8.44302 16.62C9.22302 17.097 10.749 17.03 10.749 17.03C10.749 17.03 9.35902 17.663 8.87902 18.443C8.40102 19.223 8.46902 20.75 8.46902 20.75C8.46902 20.75 7.83502 19.36 7.05502 18.88C6.27602 18.404 4.74902 18.47 4.74902 18.47C4.74902 18.47 6.13902 17.837 6.61902 17.057C7.09702 16.277 7.02902 14.75 7.02902 14.75ZM15.229 13.75C15.229 13.75 14.807 14.677 14.287 14.996C13.767 15.315 12.749 15.27 12.749 15.27C12.749 15.27 13.676 15.692 13.995 16.212C14.314 16.732 14.269 17.75 14.269 17.75C14.269 17.75 14.691 16.823 15.211 16.504C15.731 16.185 16.749 16.23 16.749 16.23C16.749 16.23 15.822 15.808 15.503 15.288C15.184 14.768 15.229 13.75 15.229 13.75Z" stroke="white" stroke-linejoin="round"/>
</svg>
