<svg preserveAspectRatio="none" width="100%" height="100%" overflow="visible" style="display: block;" viewBox="0 0 8.30038 8.30038" fill="none" xmlns="http://www.w3.org/2000/svg">
<path id="Vector" d="M8.30037 7.38242L8.30037 0.917954C8.29774 0.797621 8.27138 0.678992 8.2228 0.568872C8.13007 0.346832 7.95354 0.170302 7.7315 0.0775734C7.62138 0.0289885 7.50275 0.00262656 7.38242 0H0.917954C0.797407 5.26836e-09 0.67804 0.0237435 0.566669 0.069875C0.455297 0.116007 0.354102 0.183623 0.268862 0.268863C0.0967126 0.441012 0 0.674498 0 0.917954C0 1.16141 0.0967132 1.3949 0.268863 1.56704C0.441013 1.73919 0.674497 1.83591 0.917954 1.83591L5.17803 1.82944L0.271508 6.73597C0.10006 6.90742 0.00374048 7.13995 0.00374047 7.38242C0.00374046 7.62488 0.10006 7.85741 0.271508 8.02886C0.442956 8.20031 0.675489 8.29663 0.917953 8.29663C1.16042 8.29663 1.39295 8.20031 1.5644 8.02886L6.47093 3.12233L6.46446 7.38242C6.46397 7.5031 6.48737 7.62269 6.53333 7.73429C6.57929 7.84588 6.64688 7.94727 6.73222 8.03261C6.81756 8.11795 6.91895 8.18555 7.03055 8.2315C7.14214 8.27746 7.26173 8.30086 7.38242 8.30037C7.5031 8.30086 7.62269 8.27746 7.73429 8.2315C7.84588 8.18555 7.94727 8.11795 8.03261 8.03261C8.11795 7.94727 8.18555 7.84588 8.2315 7.73429C8.27746 7.62269 8.30086 7.5031 8.30037 7.38242Z" fill="var(--fill-0, white)"/>
</svg>
