<svg preserveAspectRatio="none" width="100%" height="100%" overflow="visible" style="display: block;" viewBox="0 0 11.645 11.6306" fill="none" xmlns="http://www.w3.org/2000/svg">
<path id="Vector" d="M11.3582 5.12445L6.51012 0.276355C6.4179 0.18808 6.30916 0.118883 6.19014 0.0727346C5.95408 -0.0242449 5.6893 -0.0242449 5.45323 0.0727346C5.33421 0.118883 5.22547 0.18808 5.13326 0.276355L0.285157 5.12445C0.194751 5.21486 0.123038 5.32219 0.0741102 5.44031C0.0251829 5.55843 0 5.68503 0 5.81288C0 6.0711 0.102574 6.31873 0.285157 6.50131C0.46774 6.6839 0.715376 6.78647 0.973587 6.78647C1.2318 6.78647 1.47943 6.6839 1.66202 6.50131L4.85207 3.30157V10.661C4.85207 10.9181 4.95422 11.1648 5.13606 11.3466C5.3179 11.5284 5.56453 11.6306 5.82169 11.6306C6.07885 11.6306 6.32547 11.5284 6.50731 11.3466C6.68915 11.1648 6.79131 10.9181 6.79131 10.661V3.30157L9.98136 6.50131C10.0715 6.5922 10.1787 6.66433 10.2969 6.71356C10.415 6.76278 10.5418 6.78813 10.6698 6.78813C10.7978 6.78813 10.9245 6.76278 11.0427 6.71356C11.1608 6.66433 11.2681 6.5922 11.3582 6.50131C11.4491 6.41118 11.5212 6.30393 11.5705 6.18578C11.6197 6.06762 11.645 5.94089 11.645 5.81288C11.645 5.68488 11.6197 5.55815 11.5705 5.43999C11.5212 5.32183 11.4491 5.21459 11.3582 5.12445Z" fill="var(--fill-0, white)"/>
</svg>
